<?xml version="1.0" encoding="UTF-8"?>
<svg width="265px" height="100px" viewBox="0 0 265 100" version="1.1" xmlns="http://www.w3.org/2000/svg" xmlns:xlink="http://www.w3.org/1999/xlink">
    <!-- Generator: Sketch 46.2 (44496) - http://www.bohemiancoding.com/sketch -->
    <title>review-us-on-facebook</title>
    <desc>Created with Sketch.</desc>
    <defs>
        <polygon id="path-1" points="142.9606 0.266918367 0 0.266918367 0 28.9827184 142.9606 28.9827184"></polygon>
    </defs>
    <g id="Page-1" stroke="none" stroke-width="1" fill="none" fill-rule="evenodd">
        <g id="review-us-on-facebook">
            <rect id="Rectangle" fill="#3B5998" x="0" y="0" width="265" height="100"></rect>
            <g id="fb" transform="translate(59.000000, 12.000000)">
                <text id="review-us-on" font-family="PTSans-Regular, PT Sans" font-size="20" font-weight="normal" fill="#FFFFFF">
                    <tspan x="20.39" y="18">review us on</tspan>
                </text>
                <g id="facebook" transform="translate(0.000000, 26.000000)">
                    <g id="Group-3">
                        <mask id="mask-2" fill="white">
                            <use xlink:href="#path-1"></use>
                        </mask>
                        <g id="Clip-2"></g>
                        <path d="M114.485498,14.2223102 C112.447899,14.2223102 111.740743,15.3136571 111.740743,16.6707388 L111.740743,21.6297388 C111.740743,22.9915551 112.447899,24.0852694 114.485498,24.0852694 C116.520684,24.0852694 117.240511,22.9915551 117.240511,21.6297388 L117.240511,16.6707388 C117.240511,15.3136571 116.520684,14.2223102 114.485498,14.2223102 L114.485498,14.2223102 Z M142.9606,28.7181673 L136.456815,28.7181673 L130.958254,19.7269837 L130.958254,28.7181673 L124.958287,28.7181673 L124.958287,1.73869796 L130.958254,0.759208163 L130.958254,18.127249 L136.456815,9.58822857 L142.9606,9.58822857 L136.95641,18.906698 L142.9606,28.7181673 Z M123.23927,21.0609837 C123.23927,25.058249 121.552836,28.9353714 114.506616,28.9353714 C107.45376,28.9353714 105.736553,25.058249 105.736553,21.0609837 L105.736553,17.2016163 C105.736553,13.2025755 107.45376,9.32545306 114.506616,9.32545306 C121.552836,9.32545306 123.23927,13.2025755 123.23927,17.2016163 L123.23927,21.0609837 Z M104.02538,21.0609837 C104.02538,25.058249 102.340152,28.9353714 95.2915194,28.9353714 C88.2386629,28.9353714 86.5226629,25.058249 86.5226629,21.0609837 L86.5226629,17.2016163 C86.5226629,13.2025755 88.2386629,9.32545306 95.2915194,9.32545306 C102.340152,9.32545306 104.02538,13.2025755 104.02538,17.2016163 L104.02538,21.0609837 Z M84.7964055,20.9591878 C84.7964055,25.5932694 83.4448443,28.973249 75.2540215,28.973249 C72.2986882,28.973249 70.56157,28.7181673 67.2967051,28.2257592 L67.2967051,1.73869796 L73.2954646,0.759208163 L73.2954646,10.0232286 C74.5921186,9.55094286 76.2701059,9.31184082 77.7972494,9.31184082 C83.7984224,9.31184082 84.7964055,11.9472898 84.7964055,16.180698 L84.7964055,20.9591878 Z M65.2898781,20.8692286 L54.2873253,20.8692286 L54.2873253,21.2645755 C54.2873253,23.5023102 55.1006755,24.0852694 57.7893169,24.0852694 C60.2070426,24.0852694 61.6822958,23.9692694 64.7878696,23.444902 L64.7878696,28.2257592 C61.7927135,28.8252898 60.2323844,28.9827184 57.2915321,28.9827184 C50.8492916,28.9827184 48.2873591,25.6642898 48.2873591,20.8692286 L48.2873591,16.9423918 C48.2873591,12.7486367 50.1891987,9.31184082 56.7895236,9.31184082 C63.392262,9.31184082 65.2898781,12.7078 65.2898781,16.9423918 L65.2898781,20.8692286 Z M46.5122283,14.8508408 C43.4000173,14.3288408 42.5070215,14.2128408 41.0094435,14.2128408 C38.3195954,14.2128408 37.5068485,14.7958 37.5068485,17.0317592 L37.5068485,21.2645755 C37.5068485,23.5023102 38.3195954,24.0852694 41.0094435,24.0852694 C42.5070215,24.0852694 43.4000173,23.9692694 46.5122283,23.444902 L46.5122283,28.2257592 C43.7861776,28.8252898 42.0104435,28.9827184 40.5098485,28.9827184 C34.0670046,28.9827184 31.5074857,25.6642898 31.5074857,20.8692286 L31.5074857,17.4348 C31.5074857,12.6361878 34.0670046,9.31184082 40.5098485,9.31184082 C42.0104435,9.31184082 43.7861776,9.4710449 46.5122283,10.0705755 L46.5122283,14.8508408 Z M29.5066924,28.7548612 L24.505916,28.7548612 L24.2899076,27.5155551 C22.0055278,28.7548612 19.9673253,28.9560857 18.6242114,28.9560857 C14.9550848,28.9560857 13.003165,26.5561878 13.003165,23.2365755 C13.003165,19.3215755 15.2809076,17.9236571 19.3561059,17.9236571 L23.5037093,17.9236571 L23.5037093,17.0779224 C23.5037093,15.0781061 23.270203,14.4915959 20.1326502,14.4915959 L15.0015447,14.4915959 L15.5035532,9.58822857 L21.1113253,9.58822857 C27.9970468,9.58822857 29.5066924,11.7194327 29.5066924,17.1169837 L29.5066924,28.7548612 Z M8.9985616,28.7181673 L2.99919873,28.7181673 L2.99919873,14.4915959 L-0.000181012658,14.4915959 L-0.000181012658,9.58822857 L2.99919873,9.58822857 L2.99919873,6.64502449 C2.99919873,2.64539184 4.69227046,0.2668 9.50057004,0.2668 L13.5051734,0.2668 L13.5051734,5.17016735 L11.0035785,5.17016735 C9.13070084,5.17016735 9.00640549,5.85551429 9.00640549,7.13388163 L8.9985616,9.58822857 L13.5341354,9.58822857 L13.003165,14.4915959 L8.9985616,14.4915959 L8.9985616,28.7181673 Z M95.271608,14.2223102 C93.2303886,14.2223102 92.5238359,15.3136571 92.5238359,16.6707388 L92.5238359,21.6297388 C92.5238359,22.9915551 93.2303886,24.0852694 95.271608,24.0852694 C97.3067937,24.0852694 98.0199835,22.9915551 98.0199835,21.6297388 L98.0199835,16.6707388 C98.0199835,15.3136571 97.3067937,14.2223102 95.271608,14.2223102 L95.271608,14.2223102 Z M19.0025278,23.1602286 C19.0025278,24.2332286 19.5196207,24.7901469 20.6606038,24.7901469 C21.8860595,24.7901469 22.6101101,24.3995347 23.5037093,23.9970857 L23.5037093,21.8493102 L20.8265321,21.8493102 C19.5588401,21.8493102 19.0025278,22.0795347 19.0025278,23.1602286 L19.0025278,23.1602286 Z M56.7895236,13.7275347 C54.7519245,13.7275347 54.2873253,14.8236163 54.2873253,16.180698 L54.2873253,16.9423918 L59.2905152,16.9423918 L59.2905152,16.180698 C59.2905152,14.8236163 58.8253127,13.7275347 56.7895236,13.7275347 L56.7895236,13.7275347 Z M76.2960511,14.2223102 C75.0718021,14.2223102 74.1902705,14.6152898 73.2954646,15.0153714 L73.2954646,24.0758 C74.1534646,24.1580653 74.6428021,24.1580653 75.4567557,24.1580653 C78.3951945,24.1580653 78.7970426,22.8388612 78.7970426,21.0000245 L78.7970426,16.6707388 C78.7970426,15.3136571 78.3372705,14.2223102 76.2960511,14.2223102 L76.2960511,14.2223102 Z" id="Fill-1" fill="#FFFFFF" mask="url(#mask-2)"></path>
                    </g>
                </g>
                <g id="stars" transform="translate(20.000000, 63.000000)" fill="#FFFFFF">
                    <polygon id="Star-1" points="101 11 96 14 97 9 93 5 98 4 100 0 103 4 108 5 104 9 105 14"></polygon>
                    <polygon id="Star-1-Copy" points="78 11 73 14 74 9 70 5 75 4 77 0 80 4 85 5 81 9 82 14"></polygon>
                    <polygon id="Star-1-Copy-2" points="54 11 49 14 50 9 46 5 51 4 53 0 56 4 61 5 57 9 58 14"></polygon>
                    <polygon id="Star-1-Copy-3" points="31 11 26 14 27 9 23 5 28 4 30 0 33 4 38 5 34 9 35 14"></polygon>
                    <polygon id="Star-1-Copy-4" points="8 11 3 14 4 9 0 5 5 4 7 0 10 4 15 5 11 9 12 14"></polygon>
                </g>
            </g>
            <g id="lines" transform="translate(20.000000, 25.000000)" stroke-width="2" stroke="#FFFFFF">
                <polyline id="Path-2" points="49 0 0 0 0 56 49 56"></polyline>
                <polyline id="Path-2-Copy" transform="translate(200.500000, 28.000000) scale(-1, 1) translate(-200.500000, -28.000000) " points="225 0 176 0 176 56 225 56"></polyline>
            </g>
        </g>
    </g>
</svg>