<svg height="100" viewBox="0 0 265 100" width="265" xmlns="http://www.w3.org/2000/svg"><g fill="none" fill-rule="evenodd"><path d="m0 0h265v100h-265z" fill="#4a92f6"/><g fill="#fff" transform="translate(59 12)"><path d="m26.65 9.54c-.400002-.133334-.7799982-.2-1.14-.2-.5733362 0-1.026665.1566651-1.36.47s-.5399996.7099976-.62 1.19v7h-1.6v-10h1.12l.3 1.22h.08c.2533346-.4533356.5566649-.8033321.91-1.05s.8033306-.37 1.35-.37c.3866686 0 .8199976.066666 1.3.2zm9.38 7.66c-.400002.3200016-.9033303.5733324-1.51.76s-1.2499966.28-1.93.28c-.7600038 0-1.4199972-.1233321-1.98-.37s-1.0199982-.5999977-1.38-1.06-.6266658-1.0099968-.8-1.65-.26-1.359996-.26-2.16c0-1.7066752.3799962-3.0066622 1.14-3.9s1.8466596-1.34 3.26-1.34c.4533356 0 .9066644.0499995 1.36.15s.8599982.2899986 1.22.57.6533322.6766641.88 1.19.34 1.1899958.34 2.03c0 .4400022-.0399996.926664-.12 1.46h-6.42c0 .5866696.0599994 1.1066644.18 1.56s.3066654.8366651.56 1.15.5833313.5533325.99.72.9033304.25 1.49.25c.4533356 0 .9066644-.0799992 1.36-.24s.7933322-.3466656 1.02-.56zm-3.44-8.04c-.7866706 0-1.4166643.2066646-1.89.62s-.7566662 1.119995-.85 2.12h4.96c0-1.0133384-.1933314-1.7233313-.58-2.13s-.9333298-.61-1.64-.61zm8.74 4.7.56 1.9h.02l.5-1.94 2.24-5.82h1.72l-4.26 10.22h-.68l-4.34-10.22h1.84zm7.1-5.86h1.6v10h-1.6zm-.34-3.04c0-.3066682.1033323-.5699989.31-.79s.4699984-.33.79-.33.5933322.1099989.82.33.34.4833318.34.79-.1133322.559999-.34.76-.4999984.3-.82.3-.5833323-.099999-.79-.3-.31-.4533318-.31-.76zm12.66 12.24c-.400002.3200016-.9033303.5733324-1.51.76s-1.2499966.28-1.93.28c-.7600038 0-1.4199972-.1233321-1.98-.37s-1.0199982-.5999977-1.38-1.06-.6266658-1.0099968-.8-1.65-.26-1.359996-.26-2.16c0-1.7066752.3799962-3.0066622 1.14-3.9s1.8466596-1.34 3.26-1.34c.4533356 0 .9066644.0499995 1.36.15s.8599982.2899986 1.22.57.6533322.6766641.88 1.19.34 1.1899958.34 2.03c0 .4400022-.0399996.926664-.12 1.46h-6.42c0 .5866696.0599994 1.1066644.18 1.56s.3066654.8366651.56 1.15.5833313.5533325.99.72.9033304.25 1.49.25c.4533356 0 .9066644-.0799992 1.36-.24s.7933322-.3466656 1.02-.56zm-3.44-8.04c-.7866706 0-1.4166643.2066646-1.89.62s-.7566662 1.119995-.85 2.12h4.96c0-1.0133384-.1933314-1.7233313-.58-2.13s-.9333298-.61-1.64-.61zm12.56-1.16 2.3 5.84.5 1.92h.04l.38-1.96 1.78-5.8h1.52l-3.36 10.22h-.78l-2.62-6.6-.38-1.64h-.06l-.4 1.66-2.52 6.58h-.78l-3.48-10.22h1.74l1.98 5.82.34 1.94h.02l.48-1.98 2.14-5.78zm14.52 0v5.7c0 .5200026.0299997.9766647.09 1.37s.1633326.7199987.31.98.3466654.456666.6.59.5733314.2.96.2c.3600018 0 .6799986-.0566661.96-.17s.5299989-.269999.75-.47.4133325-.4299987.58-.69.3033328-.5366652.41-.83v-6.68h1.6v7.16c0 .4800024.0166665.9766641.05 1.49s.0899996.9633314.17 1.35h-1.1l-.4-1.58h-.1c-.3066682.5200026-.7199974.9533316-1.24 1.3s-1.179996.52-1.98.52c-.533336 0-1.0033313-.0633327-1.41-.19s-.7466653-.3499984-1.02-.67-.4799993-.7499973-.62-1.29-.21-1.2233292-.21-2.05v-6.04zm13.74 7.28c0-.400002-.1199988-.7133322-.36-.94s-.5366649-.4166659-.89-.57-.7399979-.2999993-1.16-.44-.8066649-.3199989-1.16-.54-.6499988-.5033316-.89-.85-.36-.8133304-.36-1.4c0-.9600048.2733306-1.6633311.82-2.11s1.3066618-.67 2.28-.67c.7200036 0 1.3233309.0633327 1.81.19s.9099982.2766658 1.27.45l-.38 1.32c-.3066682-.1466674-.6766645-.2766661-1.11-.39s-.8966642-.17-1.39-.17c-.5866696 0-1.0166653.099999-1.29.3s-.41.5466642-.41 1.04c0 .3466684.1199988.6166657.36.81s.5366649.3666659.89.52.7399979.3033326 1.16.45.8066649.3399988 1.16.58.6499988.5433315.89.91.36.849997.36 1.45c0 .4266688-.0699993.8266648-.21 1.2s-.3566652.693332-.65.96-.6566645.4766659-1.09.63-.9433304.23-1.53.23c-.7600038 0-1.406664-.0733326-1.94-.22s-.9799982-.319999-1.34-.52l.48-1.36c.3066682.1733342.7066642.3333326 1.2.48s.9933308.22 1.5.22c.5733362 0 1.0466648-.1133322 1.42-.34s.56-.6333304.56-1.22zm8.8-2.28c0-1.6933418.376663-2.9899955 1.13-3.89s1.83666-1.35 3.25-1.35c.74667 0 1.396664.1233321 1.95.37s1.009998.5999977 1.37 1.06.626666 1.0133301.8 1.66.26 1.3633294.26 2.15c0 1.6933418-.376663 2.9899955-1.13 3.89s-1.83666 1.35-3.25 1.35c-.74667 0-1.396664-.1233321-1.95-.37s-1.009998-.5999977-1.37-1.06-.626666-1.0133301-.8-1.66-.26-1.3633294-.26-2.15zm1.66 0c0 .5066692.05.993331.15 1.46.100001.466669.256666.8733316.47 1.22s.493332.6266656.84.84.766664.32 1.26.32c1.813342.0133334 2.72-1.2666538 2.72-3.84 0-.5200026-.049999-1.013331-.15-1.48-.1-.466669-.256666-.8733316-.47-1.22s-.493332-.6233323-.84-.83-.766664-.31-1.26-.31c-1.813342-.0133334-2.72 1.2666538-2.72 3.84zm16.04 5v-5.7c0-1.0400052-.149999-1.8233307-.45-2.35-.300002-.5266693-.849996-.79-1.65-.79-.70667 0-1.289998.1899981-1.75.57s-.783332.8566638-.97 1.43v6.84h-1.6v-10h1.12l.3 1.22h.08c.320002-.4266688.749997-.7766653 1.29-1.05s1.18333-.41 1.93-.41c.546669 0 1.026665.0633327 1.44.19s.756665.3499984 1.03.67.479999.7499973.62 1.29.21 1.2233292.21 2.05v6.04z"/><g transform="translate(14 24)"><path d="m107 50-5 3 1-5-4-4 5-1 2-4 3 4 5 1-4 4 1 5z"/><path d="m84 50-5 3 1-5-4-4 5-1 2-4 3 4 5 1-4 4 1 5z"/><path d="m60 50-5 3 1-5-4-4 5-1 2-4 3 4 5 1-4 4 1 5z"/><path d="m37 50-5 3 1-5-4-4 5-1 2-4 3 4 5 1-4 4 1 5z"/><path d="m14 50-5 3 1-5-4-4 5-1 2-4 3 4 5 1-4 4 1 5z"/><g fill-rule="nonzero"><path d="m27.7614044 13.2548048h-13.1764433v3.9636242h9.3447183c-.4616434 5.5580644-5.0231279 7.9283496-9.3289186 7.9283496-5.50880731 0-10.31577218-4.3938361-10.31577218-10.5523825 0-5.99930209 4.58229675-10.61963165 10.32794038-10.61963165 4.4328218 0 7.0448666 2.8646658 7.0448666 2.8646658l2.7376419-2.87391729s-3.5138328-3.96551296-9.9224328-3.96551296c-8.15981589 0-14.4730047 6.98214739-14.4730047 14.5237678 0 7.3899197 5.93865476 14.5962322 14.6813684 14.5962322 7.689705 0 13.3186316-5.3401012 13.3186316-13.2363636 0-1.6659636-.2385956-2.6288316-.2385956-2.6288316z"/><path d="m38.0882636 10.08c-5.2242648 0-8.9682636 4.1021345-8.9682636 8.88648 0 4.8550842 3.6314646 9.03352 9.029659 9.03352 4.8868303 0 8.890341-3.7514092 8.890341-8.9291682 0-5.9344446-4.6570145-8.9908318-8.9517364-8.9908318zm.0519495 3.5194915c2.5691624 0 5.003621 2.086093 5.003621 5.447623 0 3.2902183-2.424225 5.4357666-5.015428 5.4357666-2.8472277 0-5.0933496-2.2902945-5.0933496-5.4618531 0-3.1035423 2.2182709-5.4215365 5.1051566-5.4215365z"/><path d="m58.2482653 10.08c-5.2242674 0-8.9682653 4.1021345-8.9682653 8.88648 0 4.8550842 3.6314648 9.03352 9.0296585 9.03352 4.8868306 0 8.8903415-3.7514092 8.8903415-8.9291682 0-5.9344446-4.6570147-8.9908318-8.9517347-8.9908318zm.0519473 3.5194915c2.5691625 0 5.0036213 2.086093 5.0036213 5.447623 0 3.2902183-2.4242241 5.4357666-5.0154273 5.4357666-2.8472289 0-5.093351-2.2902945-5.093351-5.4618531 0-3.1035423 2.2182711-5.4215365 5.105157-5.4215365z"/><path d="m78.407422 10.08c-5.0209106 0-8.967422 4.3642306-8.967422 9.2626196 0 5.579722 4.5754202 9.2797956 8.880883 9.2797956 2.6621933 0 4.0777708-1.0487429 5.122826-2.2524734v1.8279889c0 3.1982693-1.9567603 5.1134556-4.9101984 5.1134556-2.8531804 0-4.284317-2.1054611-4.7816329-3.3001915l-3.589935 1.4893809c1.2735732 2.6723876 3.8372134 5.4594243 8.4012364 5.4594243 4.9919984 0 8.7968209-3.1205506 8.7968209-9.6650222v-16.6579936h-3.916291v1.5703514c-1.2033532-1.2876954-2.8500227-2.1273356-5.036287-2.1273356zm.363439 3.6338913c2.4616552 0 4.9893159 2.0859653 4.9893159 5.6483579 0 3.6208627-2.5222729 5.6164594-5.0437083 5.6164594-2.6767505 0-5.1673293-2.1569981-5.1673293-5.5821075 0-3.5589956 2.5866995-5.6827098 5.2217217-5.6827098z"/><path d="m103.74427 10.08c-4.6445681 0-8.54427 3.6107292-8.54427 8.9386779 0 5.6376689 4.3468197 8.9813221 8.990395 8.9813221 3.875653 0 6.254336-2.0717459 7.673839-3.9279963l-3.166523-2.0587613c-.821699 1.2460223-2.195378 2.4638817-4.48792 2.4638817-2.575182 0-3.759222-1.3778378-4.4927765-2.7126396l12.2829855-4.9798846-.637667-1.4593755c-1.187062-2.8580165-3.95525-5.2452244-7.618063-5.2452244zm.160015 3.4423268c1.673623 0 2.878083.8694514 3.389591 1.911878l-8.2024054 3.3499304c-.3536267-2.593546 2.1609454-5.2618084 4.8128144-5.2618084z"/><path d="m89.6 28h4.48v-26.88h-4.48z"/></g></g></g><path d="m185.788965 61.9431629h.197123c.16034 0 .309833-.0085612.309833-.1907253 0-.160761-.136289-.1802616-.259845-.1802616h-.247111zm-.160811-.5160523h.42207c.274935 0 .404622.1022592.404622.3338882 0 .2064209-.132045.2948871-.304174.313912l.331526.5117717h-.173544l-.314077-.4989298h-.205612v.4989298h-.160811zm.37161 1.4273484c.4664 0 .839896-.3695601.839896-.8594531 0-.4803805-.373496-.8499405-.839896-.8499405-.466871 0-.840368.36956-.840368.8599287 0 .4799048.373497.8494649.840368.8494649zm0-1.854459c.54374 0 1.000236.4299643 1.000236.9950059 0 .5750298-.456496 1.0049941-1.000236 1.0049941-.544211 0-.999764-.4299643-.999764-.9950059 0-.5750298.455553-1.0049941.999764-1.0049941z" fill="#fff"/><g stroke="#fff" stroke-width="2" transform="translate(20 25)"><path d="m49 0h-49v56h49"/><path d="m225 0h-49v56h49" transform="matrix(-1 0 0 1 401 0)"/></g></g></svg>