<?xml version="1.0" encoding="UTF-8"?>
<svg width="265px" height="100px" viewBox="0 0 265 100" version="1.1" xmlns="http://www.w3.org/2000/svg" xmlns:xlink="http://www.w3.org/1999/xlink">
    <!-- Generator: Sketch 46.2 (44496) - http://www.bohemiancoding.com/sketch -->
    <title>review-us-on-facebook</title>
    <desc>Created with Sketch.</desc>
    <defs>
        <polygon id="path-1" points="142.9606 0.266918367 0 0.266918367 0 28.9827184 142.9606 28.9827184"></polygon>
    </defs>
    <g id="Page-1" stroke="none" stroke-width="1" fill="none" fill-rule="evenodd">
        <g id="review-us-on-facebook">
            <rect id="Rectangle" fill="#3B5998" x="0" y="0" width="265" height="100"></rect>
            <g id="fb" transform="translate(59.000000, 12.000000)">
                <path d="M26.65,9.54 C26.249998,9.406666 25.8700018,9.34 25.51,9.34 C24.9366638,9.34 24.483335,9.4966651 24.15,9.81 C23.816665,10.1233349 23.6100004,10.5199976 23.53,11 L23.53,18 L21.93,18 L21.93,8 L23.05,8 L23.35,9.22 L23.43,9.22 C23.6833346,8.7666644 23.9866649,8.4166679 24.34,8.17 C24.6933351,7.9233321 25.1433306,7.8 25.69,7.8 C26.0766686,7.8 26.5099976,7.866666 26.99,8 L26.65,9.54 Z M36.03,17.2 C35.629998,17.5200016 35.1266697,17.7733324 34.52,17.96 C33.9133303,18.1466676 33.2700034,18.24 32.59,18.24 C31.8299962,18.24 31.1700028,18.1166679 30.61,17.87 C30.0499972,17.6233321 29.5900018,17.2700023 29.23,16.81 C28.8699982,16.3499977 28.6033342,15.8000032 28.43,15.16 C28.2566658,14.5199968 28.17,13.800004 28.17,13 C28.17,11.2933248 28.5499962,9.9933378 29.31,9.1 C30.0700038,8.2066622 31.1566596,7.76 32.57,7.76 C33.0233356,7.76 33.4766644,7.8099995 33.93,7.91 C34.3833356,8.0100005 34.7899982,8.1999986 35.15,8.48 C35.5100018,8.7600014 35.8033322,9.1566641 36.03,9.67 C36.2566678,10.1833359 36.37,10.8599958 36.37,11.7 C36.37,12.1400022 36.3300004,12.626664 36.25,13.16 L29.83,13.16 C29.83,13.7466696 29.8899994,14.2666644 30.01,14.72 C30.1300006,15.1733356 30.3166654,15.5566651 30.57,15.87 C30.8233346,16.1833349 31.1533313,16.4233325 31.56,16.59 C31.9666687,16.7566675 32.4633304,16.84 33.05,16.84 C33.5033356,16.84 33.9566644,16.7600008 34.41,16.6 C34.8633356,16.4399992 35.2033322,16.2533344 35.43,16.04 L36.03,17.2 Z M32.59,9.16 C31.8033294,9.16 31.1733357,9.3666646 30.7,9.78 C30.2266643,10.1933354 29.9433338,10.899995 29.85,11.9 L34.81,11.9 C34.81,10.8866616 34.6166686,10.1766687 34.23,9.77 C33.8433314,9.3633313 33.2966702,9.16 32.59,9.16 Z M41.33,13.86 L41.89,15.76 L41.91,15.76 L42.41,13.82 L44.65,8 L46.37,8 L42.11,18.22 L41.43,18.22 L37.09,8 L38.93,8 L41.33,13.86 Z M48.43,8 L50.03,8 L50.03,18 L48.43,18 L48.43,8 Z M48.09,4.96 C48.09,4.6533318 48.1933323,4.3900011 48.4,4.17 C48.6066677,3.9499989 48.8699984,3.84 49.19,3.84 C49.5100016,3.84 49.7833322,3.9499989 50.01,4.17 C50.2366678,4.3900011 50.35,4.6533318 50.35,4.96 C50.35,5.2666682 50.2366678,5.519999 50.01,5.72 C49.7833322,5.920001 49.5100016,6.02 49.19,6.02 C48.8699984,6.02 48.6066677,5.920001 48.4,5.72 C48.1933323,5.519999 48.09,5.2666682 48.09,4.96 Z M60.75,17.2 C60.349998,17.5200016 59.8466697,17.7733324 59.24,17.96 C58.6333303,18.1466676 57.9900034,18.24 57.31,18.24 C56.5499962,18.24 55.8900028,18.1166679 55.33,17.87 C54.7699972,17.6233321 54.3100018,17.2700023 53.95,16.81 C53.5899982,16.3499977 53.3233342,15.8000032 53.15,15.16 C52.9766658,14.5199968 52.89,13.800004 52.89,13 C52.89,11.2933248 53.2699962,9.9933378 54.03,9.1 C54.7900038,8.2066622 55.8766596,7.76 57.29,7.76 C57.7433356,7.76 58.1966644,7.8099995 58.65,7.91 C59.1033356,8.0100005 59.5099982,8.1999986 59.87,8.48 C60.2300018,8.7600014 60.5233322,9.1566641 60.75,9.67 C60.9766678,10.1833359 61.09,10.8599958 61.09,11.7 C61.09,12.1400022 61.0500004,12.626664 60.97,13.16 L54.55,13.16 C54.55,13.7466696 54.6099994,14.2666644 54.73,14.72 C54.8500006,15.1733356 55.0366654,15.5566651 55.29,15.87 C55.5433346,16.1833349 55.8733313,16.4233325 56.28,16.59 C56.6866687,16.7566675 57.1833304,16.84 57.77,16.84 C58.2233356,16.84 58.6766644,16.7600008 59.13,16.6 C59.5833356,16.4399992 59.9233322,16.2533344 60.15,16.04 L60.75,17.2 Z M57.31,9.16 C56.5233294,9.16 55.8933357,9.3666646 55.42,9.78 C54.9466643,10.1933354 54.6633338,10.899995 54.57,11.9 L59.53,11.9 C59.53,10.8866616 59.3366686,10.1766687 58.95,9.77 C58.5633314,9.3633313 58.0166702,9.16 57.31,9.16 Z M69.87,8 L72.17,13.84 L72.67,15.76 L72.71,15.76 L73.09,13.8 L74.87,8 L76.39,8 L73.03,18.22 L72.25,18.22 L69.63,11.62 L69.25,9.98 L69.19,9.98 L68.79,11.64 L66.27,18.22 L65.49,18.22 L62.01,8 L63.75,8 L65.73,13.82 L66.07,15.76 L66.09,15.76 L66.57,13.78 L68.71,8 L69.87,8 Z M84.39,8 L84.39,13.7 C84.39,14.2200026 84.4199997,14.6766647 84.48,15.07 C84.5400003,15.4633353 84.6433326,15.7899987 84.79,16.05 C84.9366674,16.3100013 85.1366654,16.506666 85.39,16.64 C85.6433346,16.773334 85.9633314,16.84 86.35,16.84 C86.7100018,16.84 87.0299986,16.7833339 87.31,16.67 C87.5900014,16.5566661 87.8399989,16.400001 88.06,16.2 C88.2800011,15.999999 88.4733325,15.7700013 88.64,15.51 C88.8066675,15.2499987 88.9433328,14.9733348 89.05,14.68 L89.05,8 L90.65,8 L90.65,15.16 C90.65,15.6400024 90.6666665,16.1366641 90.7,16.65 C90.7333335,17.1633359 90.7899996,17.6133314 90.87,18 L89.77,18 L89.37,16.42 L89.27,16.42 C88.9633318,16.9400026 88.5500026,17.3733316 88.03,17.72 C87.5099974,18.0666684 86.850004,18.24 86.05,18.24 C85.516664,18.24 85.0466687,18.1766673 84.64,18.05 C84.2333313,17.9233327 83.8933347,17.7000016 83.62,17.38 C83.3466653,17.0599984 83.1400007,16.6300027 83,16.09 C82.8599993,15.5499973 82.79,14.8666708 82.79,14.04 L82.79,8 L84.39,8 Z M98.13,15.28 C98.13,14.879998 98.0100012,14.5666678 97.77,14.34 C97.5299988,14.1133322 97.2333351,13.9233341 96.88,13.77 C96.5266649,13.6166659 96.1400021,13.4700007 95.72,13.33 C95.2999979,13.1899993 94.9133351,13.0100011 94.56,12.79 C94.2066649,12.5699989 93.9100012,12.2866684 93.67,11.94 C93.4299988,11.5933316 93.31,11.1266696 93.31,10.54 C93.31,9.5799952 93.5833306,8.8766689 94.13,8.43 C94.6766694,7.9833311 95.4366618,7.76 96.41,7.76 C97.1300036,7.76 97.7333309,7.8233327 98.22,7.95 C98.7066691,8.0766673 99.1299982,8.2266658 99.49,8.4 L99.11,9.72 C98.8033318,9.5733326 98.4333355,9.4433339 98,9.33 C97.5666645,9.2166661 97.1033358,9.16 96.61,9.16 C96.0233304,9.16 95.5933347,9.259999 95.32,9.46 C95.0466653,9.660001 94.91,10.0066642 94.91,10.5 C94.91,10.8466684 95.0299988,11.1166657 95.27,11.31 C95.5100012,11.5033343 95.8066649,11.6766659 96.16,11.83 C96.5133351,11.9833341 96.8999979,12.1333326 97.32,12.28 C97.7400021,12.4266674 98.1266649,12.6199988 98.48,12.86 C98.8333351,13.1000012 99.1299988,13.4033315 99.37,13.77 C99.6100012,14.1366685 99.73,14.619997 99.73,15.22 C99.73,15.6466688 99.6600007,16.0466648 99.52,16.42 C99.3799993,16.7933352 99.1633348,17.113332 98.87,17.38 C98.5766652,17.646668 98.2133355,17.8566659 97.78,18.01 C97.3466645,18.1633341 96.8366696,18.24 96.25,18.24 C95.4899962,18.24 94.843336,18.1666674 94.31,18.02 C93.776664,17.8733326 93.3300018,17.700001 92.97,17.5 L93.45,16.14 C93.7566682,16.3133342 94.1566642,16.4733326 94.65,16.62 C95.1433358,16.7666674 95.6433308,16.84 96.15,16.84 C96.7233362,16.84 97.1966648,16.7266678 97.57,16.5 C97.9433352,16.2733322 98.13,15.8666696 98.13,15.28 Z M106.93,13 C106.93,11.3066582 107.306663,10.0100045 108.06,9.11 C108.813337,8.2099955 109.89666,7.76 111.31,7.76 C112.05667,7.76 112.706664,7.8833321 113.26,8.13 C113.813336,8.3766679 114.269998,8.7299977 114.63,9.19 C114.990002,9.6500023 115.256666,10.2033301 115.43,10.85 C115.603334,11.4966699 115.69,12.2133294 115.69,13 C115.69,14.6933418 115.313337,15.9899955 114.56,16.89 C113.806663,17.7900045 112.72334,18.24 111.31,18.24 C110.56333,18.24 109.913336,18.1166679 109.36,17.87 C108.806664,17.6233321 108.350002,17.2700023 107.99,16.81 C107.629998,16.3499977 107.363334,15.7966699 107.19,15.15 C107.016666,14.5033301 106.93,13.7866706 106.93,13 Z M108.59,13 C108.59,13.5066692 108.64,13.993331 108.74,14.46 C108.840001,14.926669 108.996666,15.3333316 109.21,15.68 C109.423334,16.0266684 109.703332,16.3066656 110.05,16.52 C110.396668,16.7333344 110.816664,16.84 111.31,16.84 C113.123342,16.8533334 114.03,15.5733462 114.03,13 C114.03,12.4799974 113.980001,11.986669 113.88,11.52 C113.78,11.053331 113.623334,10.6466684 113.41,10.3 C113.196666,9.9533316 112.916668,9.6766677 112.57,9.47 C112.223332,9.2633323 111.803336,9.16 111.31,9.16 C109.496658,9.1466666 108.59,10.4266538 108.59,13 Z M124.63,18 L124.63,12.3 C124.63,11.2599948 124.480001,10.4766693 124.18,9.95 C123.879998,9.4233307 123.330004,9.16 122.53,9.16 C121.82333,9.16 121.240002,9.3499981 120.78,9.73 C120.319998,10.1100019 119.996668,10.5866638 119.81,11.16 L119.81,18 L118.21,18 L118.21,8 L119.33,8 L119.63,9.22 L119.71,9.22 C120.030002,8.7933312 120.459997,8.4433347 121,8.17 C121.540003,7.8966653 122.18333,7.76 122.93,7.76 C123.476669,7.76 123.956665,7.8233327 124.37,7.95 C124.783335,8.0766673 125.126665,8.2999984 125.4,8.62 C125.673335,8.9400016 125.879999,9.3699973 126.02,9.91 C126.160001,10.4500027 126.23,11.1333292 126.23,11.96 L126.23,18 L124.63,18 Z" id="review-us-on" fill="#FFFFFF"></path>
                <g id="facebook" transform="translate(0.000000, 26.000000)">
                    <g id="Group-3">
                        <mask id="mask-2" fill="white">
                            <use xlink:href="#path-1"></use>
                        </mask>
                        <g id="Clip-2"></g>
                        <path d="M114.485498,14.2223102 C112.447899,14.2223102 111.740743,15.3136571 111.740743,16.6707388 L111.740743,21.6297388 C111.740743,22.9915551 112.447899,24.0852694 114.485498,24.0852694 C116.520684,24.0852694 117.240511,22.9915551 117.240511,21.6297388 L117.240511,16.6707388 C117.240511,15.3136571 116.520684,14.2223102 114.485498,14.2223102 L114.485498,14.2223102 Z M142.9606,28.7181673 L136.456815,28.7181673 L130.958254,19.7269837 L130.958254,28.7181673 L124.958287,28.7181673 L124.958287,1.73869796 L130.958254,0.759208163 L130.958254,18.127249 L136.456815,9.58822857 L142.9606,9.58822857 L136.95641,18.906698 L142.9606,28.7181673 Z M123.23927,21.0609837 C123.23927,25.058249 121.552836,28.9353714 114.506616,28.9353714 C107.45376,28.9353714 105.736553,25.058249 105.736553,21.0609837 L105.736553,17.2016163 C105.736553,13.2025755 107.45376,9.32545306 114.506616,9.32545306 C121.552836,9.32545306 123.23927,13.2025755 123.23927,17.2016163 L123.23927,21.0609837 Z M104.02538,21.0609837 C104.02538,25.058249 102.340152,28.9353714 95.2915194,28.9353714 C88.2386629,28.9353714 86.5226629,25.058249 86.5226629,21.0609837 L86.5226629,17.2016163 C86.5226629,13.2025755 88.2386629,9.32545306 95.2915194,9.32545306 C102.340152,9.32545306 104.02538,13.2025755 104.02538,17.2016163 L104.02538,21.0609837 Z M84.7964055,20.9591878 C84.7964055,25.5932694 83.4448443,28.973249 75.2540215,28.973249 C72.2986882,28.973249 70.56157,28.7181673 67.2967051,28.2257592 L67.2967051,1.73869796 L73.2954646,0.759208163 L73.2954646,10.0232286 C74.5921186,9.55094286 76.2701059,9.31184082 77.7972494,9.31184082 C83.7984224,9.31184082 84.7964055,11.9472898 84.7964055,16.180698 L84.7964055,20.9591878 Z M65.2898781,20.8692286 L54.2873253,20.8692286 L54.2873253,21.2645755 C54.2873253,23.5023102 55.1006755,24.0852694 57.7893169,24.0852694 C60.2070426,24.0852694 61.6822958,23.9692694 64.7878696,23.444902 L64.7878696,28.2257592 C61.7927135,28.8252898 60.2323844,28.9827184 57.2915321,28.9827184 C50.8492916,28.9827184 48.2873591,25.6642898 48.2873591,20.8692286 L48.2873591,16.9423918 C48.2873591,12.7486367 50.1891987,9.31184082 56.7895236,9.31184082 C63.392262,9.31184082 65.2898781,12.7078 65.2898781,16.9423918 L65.2898781,20.8692286 Z M46.5122283,14.8508408 C43.4000173,14.3288408 42.5070215,14.2128408 41.0094435,14.2128408 C38.3195954,14.2128408 37.5068485,14.7958 37.5068485,17.0317592 L37.5068485,21.2645755 C37.5068485,23.5023102 38.3195954,24.0852694 41.0094435,24.0852694 C42.5070215,24.0852694 43.4000173,23.9692694 46.5122283,23.444902 L46.5122283,28.2257592 C43.7861776,28.8252898 42.0104435,28.9827184 40.5098485,28.9827184 C34.0670046,28.9827184 31.5074857,25.6642898 31.5074857,20.8692286 L31.5074857,17.4348 C31.5074857,12.6361878 34.0670046,9.31184082 40.5098485,9.31184082 C42.0104435,9.31184082 43.7861776,9.4710449 46.5122283,10.0705755 L46.5122283,14.8508408 Z M29.5066924,28.7548612 L24.505916,28.7548612 L24.2899076,27.5155551 C22.0055278,28.7548612 19.9673253,28.9560857 18.6242114,28.9560857 C14.9550848,28.9560857 13.003165,26.5561878 13.003165,23.2365755 C13.003165,19.3215755 15.2809076,17.9236571 19.3561059,17.9236571 L23.5037093,17.9236571 L23.5037093,17.0779224 C23.5037093,15.0781061 23.270203,14.4915959 20.1326502,14.4915959 L15.0015447,14.4915959 L15.5035532,9.58822857 L21.1113253,9.58822857 C27.9970468,9.58822857 29.5066924,11.7194327 29.5066924,17.1169837 L29.5066924,28.7548612 Z M8.9985616,28.7181673 L2.99919873,28.7181673 L2.99919873,14.4915959 L-0.000181012658,14.4915959 L-0.000181012658,9.58822857 L2.99919873,9.58822857 L2.99919873,6.64502449 C2.99919873,2.64539184 4.69227046,0.2668 9.50057004,0.2668 L13.5051734,0.2668 L13.5051734,5.17016735 L11.0035785,5.17016735 C9.13070084,5.17016735 9.00640549,5.85551429 9.00640549,7.13388163 L8.9985616,9.58822857 L13.5341354,9.58822857 L13.003165,14.4915959 L8.9985616,14.4915959 L8.9985616,28.7181673 Z M95.271608,14.2223102 C93.2303886,14.2223102 92.5238359,15.3136571 92.5238359,16.6707388 L92.5238359,21.6297388 C92.5238359,22.9915551 93.2303886,24.0852694 95.271608,24.0852694 C97.3067937,24.0852694 98.0199835,22.9915551 98.0199835,21.6297388 L98.0199835,16.6707388 C98.0199835,15.3136571 97.3067937,14.2223102 95.271608,14.2223102 L95.271608,14.2223102 Z M19.0025278,23.1602286 C19.0025278,24.2332286 19.5196207,24.7901469 20.6606038,24.7901469 C21.8860595,24.7901469 22.6101101,24.3995347 23.5037093,23.9970857 L23.5037093,21.8493102 L20.8265321,21.8493102 C19.5588401,21.8493102 19.0025278,22.0795347 19.0025278,23.1602286 L19.0025278,23.1602286 Z M56.7895236,13.7275347 C54.7519245,13.7275347 54.2873253,14.8236163 54.2873253,16.180698 L54.2873253,16.9423918 L59.2905152,16.9423918 L59.2905152,16.180698 C59.2905152,14.8236163 58.8253127,13.7275347 56.7895236,13.7275347 L56.7895236,13.7275347 Z M76.2960511,14.2223102 C75.0718021,14.2223102 74.1902705,14.6152898 73.2954646,15.0153714 L73.2954646,24.0758 C74.1534646,24.1580653 74.6428021,24.1580653 75.4567557,24.1580653 C78.3951945,24.1580653 78.7970426,22.8388612 78.7970426,21.0000245 L78.7970426,16.6707388 C78.7970426,15.3136571 78.3372705,14.2223102 76.2960511,14.2223102 L76.2960511,14.2223102 Z" id="Fill-1" fill="#FFFFFF" mask="url(#mask-2)"></path>
                    </g>
                </g>
                <path d="M144.788965,53.9431629 L144.986088,53.9431629 C145.146428,53.9431629 145.295921,53.9346017 145.295921,53.7524376 C145.295921,53.5916766 145.159632,53.572176 145.036076,53.572176 L144.788965,53.572176 L144.788965,53.9431629 Z M144.628154,53.4271106 L145.050224,53.4271106 C145.325159,53.4271106 145.454846,53.5293698 145.454846,53.7609988 C145.454846,53.9674197 145.322801,54.0558859 145.150672,54.0749108 L145.482198,54.5866825 L145.308654,54.5866825 L144.994577,54.0877527 L144.788965,54.0877527 L144.788965,54.5866825 L144.628154,54.5866825 L144.628154,53.4271106 Z M144.999764,54.854459 C145.466164,54.854459 145.83966,54.4848989 145.83966,53.9950059 C145.83966,53.5146254 145.466164,53.1450654 144.999764,53.1450654 C144.532893,53.1450654 144.159396,53.5146254 144.159396,54.0049941 C144.159396,54.4848989 144.532893,54.854459 144.999764,54.854459 Z M144.999764,53 C145.543504,53 146,53.4299643 146,53.9950059 C146,54.5700357 145.543504,55 144.999764,55 C144.455553,55 144,54.5700357 144,54.0049941 C144,53.4299643 144.455553,53 144.999764,53 L144.999764,53 Z" id="Fill-2" fill="#FFFFFF"></path>
                <g id="stars" transform="translate(20.000000, 63.000000)" fill="#FFFFFF">
                    <polygon id="Star-1" points="101 11 96 14 97 9 93 5 98 4 100 0 103 4 108 5 104 9 105 14"></polygon>
                    <polygon id="Star-1-Copy" points="78 11 73 14 74 9 70 5 75 4 77 0 80 4 85 5 81 9 82 14"></polygon>
                    <polygon id="Star-1-Copy-2" points="54 11 49 14 50 9 46 5 51 4 53 0 56 4 61 5 57 9 58 14"></polygon>
                    <polygon id="Star-1-Copy-3" points="31 11 26 14 27 9 23 5 28 4 30 0 33 4 38 5 34 9 35 14"></polygon>
                    <polygon id="Star-1-Copy-4" points="8 11 3 14 4 9 0 5 5 4 7 0 10 4 15 5 11 9 12 14"></polygon>
                </g>
            </g>
            <g id="lines" transform="translate(20.000000, 25.000000)" stroke-width="2" stroke="#FFFFFF">
                <polyline id="Path-2" points="49 0 0 0 0 56 49 56"></polyline>
                <polyline id="Path-2-Copy" transform="translate(200.500000, 28.000000) scale(-1, 1) translate(-200.500000, -28.000000) " points="225 0 176 0 176 56 225 56"></polyline>
            </g>
        </g>
    </g>
</svg>