<svg height="100" viewBox="0 0 265 100" width="265" xmlns="http://www.w3.org/2000/svg" xmlns:xlink="http://www.w3.org/1999/xlink"><mask id="a" fill="#fff"><path d="m142.9606.26691837h-142.9606v28.71580003h142.9606z" fill="#fff" fill-rule="evenodd"/></mask><g fill="none" fill-rule="evenodd"><path d="m0 0h265v100h-265z" fill="#3b5998"/><g fill="#fff" transform="translate(59 12)"><path d="m26.65 9.54c-.400002-.133334-.7799982-.2-1.14-.2-.5733362 0-1.026665.1566651-1.36.47s-.5399996.7099976-.62 1.19v7h-1.6v-10h1.12l.3 1.22h.08c.2533346-.4533356.5566649-.8033321.91-1.05s.8033306-.37 1.35-.37c.3866686 0 .8199976.066666 1.3.2zm9.38 7.66c-.400002.3200016-.9033303.5733324-1.51.76s-1.2499966.28-1.93.28c-.7600038 0-1.4199972-.1233321-1.98-.37s-1.0199982-.5999977-1.38-1.06-.6266658-1.0099968-.8-1.65-.26-1.359996-.26-2.16c0-1.7066752.3799962-3.0066622 1.14-3.9s1.8466596-1.34 3.26-1.34c.4533356 0 .9066644.0499995 1.36.15s.8599982.2899986 1.22.57.6533322.6766641.88 1.19.34 1.1899958.34 2.03c0 .4400022-.0399996.926664-.12 1.46h-6.42c0 .5866696.0599994 1.1066644.18 1.56s.3066654.8366651.56 1.15.5833313.5533325.99.72.9033304.25 1.49.25c.4533356 0 .9066644-.0799992 1.36-.24s.7933322-.3466656 1.02-.56zm-3.44-8.04c-.7866706 0-1.4166643.2066646-1.89.62s-.7566662 1.119995-.85 2.12h4.96c0-1.0133384-.1933314-1.7233313-.58-2.13s-.9333298-.61-1.64-.61zm8.74 4.7.56 1.9h.02l.5-1.94 2.24-5.82h1.72l-4.26 10.22h-.68l-4.34-10.22h1.84zm7.1-5.86h1.6v10h-1.6zm-.34-3.04c0-.3066682.1033323-.5699989.31-.79s.4699984-.33.79-.33.5933322.1099989.82.33.34.4833318.34.79-.1133322.559999-.34.76-.4999984.3-.82.3-.5833323-.099999-.79-.3-.31-.4533318-.31-.76zm12.66 12.24c-.400002.3200016-.9033303.5733324-1.51.76s-1.2499966.28-1.93.28c-.7600038 0-1.4199972-.1233321-1.98-.37s-1.0199982-.5999977-1.38-1.06-.6266658-1.0099968-.8-1.65-.26-1.359996-.26-2.16c0-1.7066752.3799962-3.0066622 1.14-3.9s1.8466596-1.34 3.26-1.34c.4533356 0 .9066644.0499995 1.36.15s.8599982.2899986 1.22.57.6533322.6766641.88 1.19.34 1.1899958.34 2.03c0 .4400022-.0399996.926664-.12 1.46h-6.42c0 .5866696.0599994 1.1066644.18 1.56s.3066654.8366651.56 1.15.5833313.5533325.99.72.9033304.25 1.49.25c.4533356 0 .9066644-.0799992 1.36-.24s.7933322-.3466656 1.02-.56zm-3.44-8.04c-.7866706 0-1.4166643.2066646-1.89.62s-.7566662 1.119995-.85 2.12h4.96c0-1.0133384-.1933314-1.7233313-.58-2.13s-.9333298-.61-1.64-.61zm12.56-1.16 2.3 5.84.5 1.92h.04l.38-1.96 1.78-5.8h1.52l-3.36 10.22h-.78l-2.62-6.6-.38-1.64h-.06l-.4 1.66-2.52 6.58h-.78l-3.48-10.22h1.74l1.98 5.82.34 1.94h.02l.48-1.98 2.14-5.78zm14.52 0v5.7c0 .5200026.0299997.9766647.09 1.37s.1633326.7199987.31.98.3466654.456666.6.59.5733314.2.96.2c.3600018 0 .6799986-.0566661.96-.17s.5299989-.269999.75-.47.4133325-.4299987.58-.69.3033328-.5366652.41-.83v-6.68h1.6v7.16c0 .4800024.0166665.9766641.05 1.49s.0899996.9633314.17 1.35h-1.1l-.4-1.58h-.1c-.3066682.5200026-.7199974.9533316-1.24 1.3s-1.179996.52-1.98.52c-.533336 0-1.0033313-.0633327-1.41-.19s-.7466653-.3499984-1.02-.67-.4799993-.7499973-.62-1.29-.21-1.2233292-.21-2.05v-6.04zm13.74 7.28c0-.400002-.1199988-.7133322-.36-.94s-.5366649-.4166659-.89-.57-.7399979-.2999993-1.16-.44-.8066649-.3199989-1.16-.54-.6499988-.5033316-.89-.85-.36-.8133304-.36-1.4c0-.9600048.2733306-1.6633311.82-2.11s1.3066618-.67 2.28-.67c.7200036 0 1.3233309.0633327 1.81.19s.9099982.2766658 1.27.45l-.38 1.32c-.3066682-.1466674-.6766645-.2766661-1.11-.39s-.8966642-.17-1.39-.17c-.5866696 0-1.0166653.099999-1.29.3s-.41.5466642-.41 1.04c0 .3466684.1199988.6166657.36.81s.5366649.3666659.89.52.7399979.3033326 1.16.45.8066649.3399988 1.16.58.6499988.5433315.89.91.36.849997.36 1.45c0 .4266688-.0699993.8266648-.21 1.2s-.3566652.693332-.65.96-.6566645.4766659-1.09.63-.9433304.23-1.53.23c-.7600038 0-1.406664-.0733326-1.94-.22s-.9799982-.319999-1.34-.52l.48-1.36c.3066682.1733342.7066642.3333326 1.2.48s.9933308.22 1.5.22c.5733362 0 1.0466648-.1133322 1.42-.34s.56-.6333304.56-1.22zm8.8-2.28c0-1.6933418.376663-2.9899955 1.13-3.89s1.83666-1.35 3.25-1.35c.74667 0 1.396664.1233321 1.95.37s1.009998.5999977 1.37 1.06.626666 1.0133301.8 1.66.26 1.3633294.26 2.15c0 1.6933418-.376663 2.9899955-1.13 3.89s-1.83666 1.35-3.25 1.35c-.74667 0-1.396664-.1233321-1.95-.37s-1.009998-.5999977-1.37-1.06-.626666-1.0133301-.8-1.66-.26-1.3633294-.26-2.15zm1.66 0c0 .5066692.05.993331.15 1.46.100001.466669.256666.8733316.47 1.22s.493332.6266656.84.84.766664.32 1.26.32c1.813342.0133334 2.72-1.2666538 2.72-3.84 0-.5200026-.049999-1.013331-.15-1.48-.1-.466669-.256666-.8733316-.47-1.22s-.493332-.6233323-.84-.83-.766664-.31-1.26-.31c-1.813342-.0133334-2.72 1.2666538-2.72 3.84zm16.04 5v-5.7c0-1.0400052-.149999-1.8233307-.45-2.35-.300002-.5266693-.849996-.79-1.65-.79-.70667 0-1.289998.1899981-1.75.57s-.783332.8566638-.97 1.43v6.84h-1.6v-10h1.12l.3 1.22h.08c.320002-.4266688.749997-.7766653 1.29-1.05s1.18333-.41 1.93-.41c.546669 0 1.026665.0633327 1.44.19s.756665.3499984 1.03.67.479999.7499973.62 1.29.21 1.2233292.21 2.05v6.04z"/><path d="m114.485498 14.2223102c-2.037599 0-2.744755 1.0913469-2.744755 2.4484286v4.959c0 1.3618163.707156 2.4555306 2.744755 2.4555306 2.035186 0 2.755013-1.0937143 2.755013-2.4555306v-4.959c0-1.3570817-.719827-2.4484286-2.755013-2.4484286zm28.475102 14.4958571h-6.503785l-5.498561-8.9911836v8.9911836h-5.999967v-26.97946934l5.999967-.9794898v17.36804084l5.498561-8.53902043h6.503785l-6.00419 9.31846943zm-19.72133-7.6571836c0 3.9972653-1.686434 7.8743877-8.732654 7.8743877-7.052856 0-8.770063-3.8771224-8.770063-7.8743877v-3.8593674c0-3.9990408 1.717207-7.87616324 8.770063-7.87616324 7.04622 0 8.732654 3.87712244 8.732654 7.87616324zm-19.21389 0c0 3.9972653-1.685228 7.8743877-8.7338606 7.8743877-7.0528565 0-8.7688565-3.8771224-8.7688565-7.8743877v-3.8593674c0-3.9990408 1.716-7.87616324 8.7688565-7.87616324 7.0486326 0 8.7338606 3.87712244 8.7338606 7.87616324zm-19.2289745-.1017959c0 4.6340816-1.3515612 8.0140612-9.542384 8.0140612-2.9553333 0-4.6924515-.2550817-7.9573164-.7474898v-26.48706124l5.9987595-.9794898v9.26402044c1.296654-.47228574 2.9746413-.71138778 4.5017848-.71138778 6.001173 0 6.9991561 2.63544898 6.9991561 6.86885718zm-19.5065274-.0899592h-11.0025528v.3953469c0 2.2377347.8133502 2.8206939 3.5019916 2.8206939 2.4177257 0 3.8929789-.116 6.9985527-.6403674v4.7808572c-2.9951561.5995306-4.5554852.7569592-7.4963375.7569592-6.4422405 0-9.004173-3.3184286-9.004173-8.1134898v-3.9268368c0-4.1937551 1.9018396-7.63055098 8.5021645-7.63055098 6.6027384 0 8.5003545 3.39595918 8.5003545 7.63055098zm-18.7776498-6.0183878c-3.112211-.522-4.0052068-.638-5.5027848-.638-2.6898481 0-3.502595.5829592-3.502595 2.8189184v4.2328163c0 2.2377347.8127469 2.8206939 3.502595 2.8206939 1.497578 0 2.3905738-.116 5.5027848-.6403674v4.7808572c-2.7260507.5995306-4.5017848.7569592-6.0023798.7569592-6.4428439 0-9.0023628-3.3184286-9.0023628-8.1134898v-3.4344286c0-4.7986122 2.5595189-8.12295918 9.0023628-8.12295918 1.500595 0 3.2763291.15920408 6.0023798.75873468zm-17.0055359 13.9040204h-5.0007764l-.2160084-1.2393061c-2.2843798 1.2393061-4.3225823 1.4405306-5.6656962 1.4405306-3.6691266 0-5.6210464-2.3998979-5.6210464-5.7195102 0-3.915 2.2777426-5.3129184 6.3529409-5.3129184h4.1476034v-.8457347c0-1.9998163-.2335063-2.5863265-3.3710591-2.5863265h-5.1311055l.5020085-4.90336733h5.6077721c6.8857215 0 8.3953671 2.13120413 8.3953671 7.52875513zm-20.5081308-.0366939h-5.99936287v-14.2265714h-2.99937974v-4.90336733h2.99937974v-2.94320408c0-3.99963265 1.69307173-6.37822449 6.50137131-6.37822449h4.00460336v4.90336735h-2.5015949c-1.87287766 0-1.99717301.68534694-1.99717301 1.96371428l-.00784389 2.45434694h4.5355738l-.5309704 4.90336733h-4.0046034zm86.2730464-14.4958571c-2.0412194 0-2.7477721 1.0913469-2.7477721 2.4484286v4.959c0 1.3618163.7065527 2.4555306 2.7477721 2.4555306 2.0351857 0 2.7483755-1.0937143 2.7483755-2.4555306v-4.959c0-1.3570817-.7131898-2.4484286-2.7483755-2.4484286zm-76.2690802 8.9379184c0 1.073.5170929 1.6299183 1.658076 1.6299183 1.2254557 0 1.9495063-.3906122 2.8431055-.7930612v-2.1477755h-2.6771772c-1.267692 0-1.8240043.2302245-1.8240043 1.3109184zm37.7869958-9.4326939c-2.0375991 0-2.5021983 1.0960816-2.5021983 2.4531633v.7616938h5.0031899v-.7616938c0-1.3570817-.4652025-2.4531633-2.5009916-2.4531633zm19.5065275.4947755c-1.224249 0-2.1057806.3929796-3.0005865.7930612v9.0604286c.858.0822653 1.3473375.0822653 2.1612911.0822653 2.9384388 0 3.3402869-1.3192041 3.3402869-3.1580408v-4.3292857c0-1.3570817-.4597721-2.4484286-2.5009915-2.4484286z" mask="url(#a)" transform="translate(0 26)"/><path d="m144.788965 53.9431629h.197123c.16034 0 .309833-.0085612.309833-.1907253 0-.160761-.136289-.1802616-.259845-.1802616h-.247111zm-.160811-.5160523h.42207c.274935 0 .404622.1022592.404622.3338882 0 .2064209-.132045.2948871-.304174.313912l.331526.5117717h-.173544l-.314077-.4989298h-.205612v.4989298h-.160811zm.37161 1.4273484c.4664 0 .839896-.3695601.839896-.8594531 0-.4803805-.373496-.8499405-.839896-.8499405-.466871 0-.840368.36956-.840368.8599287 0 .4799048.373497.8494649.840368.8494649zm0-1.854459c.54374 0 1.000236.4299643 1.000236.9950059 0 .5750298-.456496 1.0049941-1.000236 1.0049941-.544211 0-.999764-.4299643-.999764-.9950059 0-.5750298.455553-1.0049941.999764-1.0049941z"/><g transform="translate(20 63)"><path d="m101 11-5 3 1-5-4-4 5-1 2-4 3 4 5 1-4 4 1 5z"/><path d="m78 11-5 3 1-5-4-4 5-1 2-4 3 4 5 1-4 4 1 5z"/><path d="m54 11-5 3 1-5-4-4 5-1 2-4 3 4 5 1-4 4 1 5z"/><path d="m31 11-5 3 1-5-4-4 5-1 2-4 3 4 5 1-4 4 1 5z"/><path d="m8 11-5 3 1-5-4-4 5-1 2-4 3 4 5 1-4 4 1 5z"/></g></g><g stroke="#fff" stroke-width="2" transform="translate(20 25)"><path d="m49 0h-49v56h49"/><path d="m225 0h-49v56h49" transform="matrix(-1 0 0 1 401 0)"/></g></g></svg>