<svg height="100" viewBox="0 0 265 100" width="265" xmlns="http://www.w3.org/2000/svg"><g fill="none" fill-rule="evenodd"><path d="m0 0h265v100h-265z" fill="#d32323"/><g fill="#fff" transform="translate(59 12)"><path d="m26.65 9.54c-.400002-.133334-.7799982-.2-1.14-.2-.5733362 0-1.026665.1566651-1.36.47s-.5399996.7099976-.62 1.19v7h-1.6v-10h1.12l.3 1.22h.08c.2533346-.4533356.5566649-.8033321.91-1.05s.8033306-.37 1.35-.37c.3866686 0 .8199976.066666 1.3.2zm9.38 7.66c-.400002.3200016-.9033303.5733324-1.51.76s-1.2499966.28-1.93.28c-.7600038 0-1.4199972-.1233321-1.98-.37s-1.0199982-.5999977-1.38-1.06-.6266658-1.0099968-.8-1.65-.26-1.359996-.26-2.16c0-1.7066752.3799962-3.0066622 1.14-3.9s1.8466596-1.34 3.26-1.34c.4533356 0 .9066644.0499995 1.36.15s.8599982.2899986 1.22.57.6533322.6766641.88 1.19.34 1.1899958.34 2.03c0 .4400022-.0399996.926664-.12 1.46h-6.42c0 .5866696.0599994 1.1066644.18 1.56s.3066654.8366651.56 1.15.5833313.5533325.99.72.9033304.25 1.49.25c.4533356 0 .9066644-.0799992 1.36-.24s.7933322-.3466656 1.02-.56zm-3.44-8.04c-.7866706 0-1.4166643.2066646-1.89.62s-.7566662 1.119995-.85 2.12h4.96c0-1.0133384-.1933314-1.7233313-.58-2.13s-.9333298-.61-1.64-.61zm8.74 4.7.56 1.9h.02l.5-1.94 2.24-5.82h1.72l-4.26 10.22h-.68l-4.34-10.22h1.84zm7.1-5.86h1.6v10h-1.6zm-.34-3.04c0-.3066682.1033323-.5699989.31-.79s.4699984-.33.79-.33.5933322.1099989.82.33.34.4833318.34.79-.1133322.559999-.34.76-.4999984.3-.82.3-.5833323-.099999-.79-.3-.31-.4533318-.31-.76zm12.66 12.24c-.400002.3200016-.9033303.5733324-1.51.76s-1.2499966.28-1.93.28c-.7600038 0-1.4199972-.1233321-1.98-.37s-1.0199982-.5999977-1.38-1.06-.6266658-1.0099968-.8-1.65-.26-1.359996-.26-2.16c0-1.7066752.3799962-3.0066622 1.14-3.9s1.8466596-1.34 3.26-1.34c.4533356 0 .9066644.0499995 1.36.15s.8599982.2899986 1.22.57.6533322.6766641.88 1.19.34 1.1899958.34 2.03c0 .4400022-.0399996.926664-.12 1.46h-6.42c0 .5866696.0599994 1.1066644.18 1.56s.3066654.8366651.56 1.15.5833313.5533325.99.72.9033304.25 1.49.25c.4533356 0 .9066644-.0799992 1.36-.24s.7933322-.3466656 1.02-.56zm-3.44-8.04c-.7866706 0-1.4166643.2066646-1.89.62s-.7566662 1.119995-.85 2.12h4.96c0-1.0133384-.1933314-1.7233313-.58-2.13s-.9333298-.61-1.64-.61zm12.56-1.16 2.3 5.84.5 1.92h.04l.38-1.96 1.78-5.8h1.52l-3.36 10.22h-.78l-2.62-6.6-.38-1.64h-.06l-.4 1.66-2.52 6.58h-.78l-3.48-10.22h1.74l1.98 5.82.34 1.94h.02l.48-1.98 2.14-5.78zm14.52 0v5.7c0 .5200026.0299997.9766647.09 1.37s.1633326.7199987.31.98.3466654.456666.6.59.5733314.2.96.2c.3600018 0 .6799986-.0566661.96-.17s.5299989-.269999.75-.47.4133325-.4299987.58-.69.3033328-.5366652.41-.83v-6.68h1.6v7.16c0 .4800024.0166665.9766641.05 1.49s.0899996.9633314.17 1.35h-1.1l-.4-1.58h-.1c-.3066682.5200026-.7199974.9533316-1.24 1.3s-1.179996.52-1.98.52c-.533336 0-1.0033313-.0633327-1.41-.19s-.7466653-.3499984-1.02-.67-.4799993-.7499973-.62-1.29-.21-1.2233292-.21-2.05v-6.04zm13.74 7.28c0-.400002-.1199988-.7133322-.36-.94s-.5366649-.4166659-.89-.57-.7399979-.2999993-1.16-.44-.8066649-.3199989-1.16-.54-.6499988-.5033316-.89-.85-.36-.8133304-.36-1.4c0-.9600048.2733306-1.6633311.82-2.11s1.3066618-.67 2.28-.67c.7200036 0 1.3233309.0633327 1.81.19s.9099982.2766658 1.27.45l-.38 1.32c-.3066682-.1466674-.6766645-.2766661-1.11-.39s-.8966642-.17-1.39-.17c-.5866696 0-1.0166653.099999-1.29.3s-.41.5466642-.41 1.04c0 .3466684.1199988.6166657.36.81s.5366649.3666659.89.52.7399979.3033326 1.16.45.8066649.3399988 1.16.58.6499988.5433315.89.91.36.849997.36 1.45c0 .4266688-.0699993.8266648-.21 1.2s-.3566652.693332-.65.96-.6566645.4766659-1.09.63-.9433304.23-1.53.23c-.7600038 0-1.406664-.0733326-1.94-.22s-.9799982-.319999-1.34-.52l.48-1.36c.3066682.1733342.7066642.3333326 1.2.48s.9933308.22 1.5.22c.5733362 0 1.0466648-.1133322 1.42-.34s.56-.6333304.56-1.22zm8.8-2.28c0-1.6933418.376663-2.9899955 1.13-3.89s1.83666-1.35 3.25-1.35c.74667 0 1.396664.1233321 1.95.37s1.009998.5999977 1.37 1.06.626666 1.0133301.8 1.66.26 1.3633294.26 2.15c0 1.6933418-.376663 2.9899955-1.13 3.89s-1.83666 1.35-3.25 1.35c-.74667 0-1.396664-.1233321-1.95-.37s-1.009998-.5999977-1.37-1.06-.626666-1.0133301-.8-1.66-.26-1.3633294-.26-2.15zm1.66 0c0 .5066692.05.993331.15 1.46.100001.466669.256666.8733316.47 1.22s.493332.6266656.84.84.766664.32 1.26.32c1.813342.0133334 2.72-1.2666538 2.72-3.84 0-.5200026-.049999-1.013331-.15-1.48-.1-.466669-.256666-.8733316-.47-1.22s-.493332-.6233323-.84-.83-.766664-.31-1.26-.31c-1.813342-.0133334-2.72 1.2666538-2.72 3.84zm16.04 5v-5.7c0-1.0400052-.149999-1.8233307-.45-2.35-.300002-.5266693-.849996-.79-1.65-.79-.70667 0-1.289998.1899981-1.75.57s-.783332.8566638-.97 1.43v6.84h-1.6v-10h1.12l.3 1.22h.08c.320002-.4266688.749997-.7766653 1.29-1.05s1.18333-.41 1.93-.41c.546669 0 1.026665.0633327 1.44.19s.756665.3499984 1.03.67.479999.7499973.62 1.29.21 1.2233292.21 2.05v6.04z"/><g transform="translate(20 63)"><path d="m101 11-5 3 1-5-4-4 5-1 2-4 3 4 5 1-4 4 1 5z"/><path d="m78 11-5 3 1-5-4-4 5-1 2-4 3 4 5 1-4 4 1 5z"/><path d="m54 11-5 3 1-5-4-4 5-1 2-4 3 4 5 1-4 4 1 5z"/><path d="m31 11-5 3 1-5-4-4 5-1 2-4 3 4 5 1-4 4 1 5z"/><path d="m8 11-5 3 1-5-4-4 5-1 2-4 3 4 5 1-4 4 1 5z"/></g></g><g stroke="#fff" stroke-width="2" transform="translate(20 25)"><path d="m49 0h-49v56h49"/><path d="m225 0h-49v56h49" transform="matrix(-1 0 0 1 401 0)"/></g><g fill="#fff" transform="translate(92 30)"><path d="m57.7889649 29.9431629h.1971233c.1603395 0 .3098326-.0085612.3098326-.1907253 0-.160761-.1362886-.1802616-.2598444-.1802616h-.2471115zm-.1608112-.5160523h.4220703c.2749352 0 .4046216.1022592.4046216.3338882 0 .2064209-.1320444.2948871-.3041736.313912l.3315256.5117717h-.173544l-.3140768-.4989298h-.2056119v.4989298h-.1608112zm.3716105 1.4273484c.4663994 0 .8398963-.3695601.8398963-.8594531 0-.4803805-.3734969-.8499405-.8398963-.8499405-.466871 0-.8403678.36956-.8403678.8599287 0 .4799048.3734968.8494649.8403678.8494649zm0-1.854459c.5437397 0 1.0002358.4299643 1.0002358.9950059 0 .5750298-.4564961 1.0049941-1.0002358 1.0049941-.5442113 0-.9997642-.4299643-.9997642-.9950059 0-.5750298.4555529-1.0049941.9997642-1.0049941z"/><path d="m38 33.2427556c0 .9702035-.8953565 1.7572444-1.9997354 1.7572444-1.1049081 0-2.0002646-.7870409-2.0002646-1.7572444v-17.4855112c0-.9706683.8953565-1.7572444 2.0002646-1.7572444 1.1043789 0 1.9997354.7865761 1.9997354 1.7572444z"/><path d="m21.5424582 25.2212977c.1111152-2.413821 1.8550064-2.8104235 2.6389859-2.8104235.7883887 0 2.5388939.4016872 2.6319309 2.8511007 0 .1298897-.06614.2061594-.138894.2061594h-4.9869557c-.0806908 0-.1534448-.0850523-.1450671-.2468366zm.7248944 3.122436 5.9869924.0064714c.0414478 0 .0824546-.0032357.1239023-.0064714.8307183-.0656381 1.6182252-.7881204 1.6213118-1.9451089 0-.0023112.0004409-.0046224.0004409-.0064713-.0013228-.0305079-.0044093-.0587046-.0057321-.0887503-.2971891-6.3798463-4.205181-7.3034032-5.9777329-7.3034032-1.8426603 0-6.016535 1.1403478-6.016535 8.2338938.0317472 2.6675911.5767408 7.7661062 5.9279074 7.7661062 4.6223039 0 5.6571744-2.7988675 5.6571744-3.5125672 0-1.0534466-.8368915-1.9464956-1.7818115-1.6104466-.7667831.272722-1.818409 1.8739238-3.5129157 1.8739238-2.4246923 0-2.7390777-2.3241463-2.7390777-2.8192061 0-.4086208.2037112-.5676316.7160757-.5879702z"/><path d="m8.33522216 32.7372181-5.16273824-11.1604903c-.41139272-.8887988-.06164333-1.9607077.78081553-2.3947293.84289604-.4340216 1.85891802-.0650341 2.27031075.8237647l3.9971984 8.6412277 2.4596126-8.3852425c.2771764-.9446082 1.2276204-1.4736442 2.123416-1.1812215.8957956.2924226 1.3972488 1.2956076 1.1196353 2.2402158 0 0-2.7643318 9.5392511-4.4260786 15.0201002-.5495438 1.8131127-1.99051127 2.7125199-4.1493394 2.6567105-2.13565724-.0544256-2.4666076-1.3827809-2.23008957-2.2591264.2605633-.9635188 1.02257979-1.2545577 1.76885756-1.2504066 1.92930509.0106084 2.17500404-1.2227325 1.44839967-2.7508023"/><path d="m50.7179036 27.8085361c0 1.3890598 0 3.8822084-2.3688486 3.8822084-2.37539 0-2.3688486-2.4931486-2.3688486-3.8822084v-1.2686561c0-1.3890598 0-3.8822084 2.3688486-3.8822084 2.37539 0 2.3688486 2.4931486 2.3688486 3.8822084zm3.2650165-1.3342041c0-2.3058021-.2660158-5.4655878-2.9972563-6.8490691-1.540711-.7800678-3.439017-.7661214-4.8981789.1329555-.2926173.1803732-.5826181.3798065-.8390399.5838886-.1748727-.7698404-.8242128-1.342107-1.6000194-1.342107-.9101228 0-1.6484256.7865761-1.6484256 1.7572444v17.4855112c0 .9706683.7383028 1.7572444 1.6484256 1.7572444s1.6484256-.7865761 1.6484256-1.7572444v-4.5888252s1.1072361 1.4471698 2.8699176 1.4959822c6.2605285.1738649 5.8501664-7.0842982 5.8161513-8.6755806z"/><path d="m59.4447262 18.1344606 5.8075534 2.8081954c1.1167188.5401718.9442389 2.1694139-.2617997 2.4674247l-6.2686729 1.5502669c-.7818791.1932925-1.5540782-.3416434-1.6464781-1.1357571-.1971198-1.6981815-.0022-3.3749831.5240394-4.927868.2556397-.7539717 1.1241987-1.1113229 1.8453579-.7622619"/><path d="m62.3427962 30.172674 4.3317048-4.7352498c.8333593-.9108587 2.3682397-.3007266 2.3245875.924311l-.2257566 6.3699351c-.0282196.7941264-.7606057 1.3816931-1.5564859 1.2497727-1.6737736-.2764254-3.2567154-.9130284-4.6390337-1.8473202-.6640419-.4491371-.7738337-1.3721463-.2350161-1.9614488"/><path d="m72.7850526 23.0758786 6.2740238 2.205682c.7809392.2746166 1.1619728 1.2306713.8078991 2.0321631-.7360059 1.6681137-1.803619 3.1583343-3.1372366 4.3491498-.6344569.5662449-1.5847942.4000168-2.0206463-.3548144l-3.4971516-6.0542032c-.6726501-1.1640829.3657563-2.6018104 1.5731116-2.1779773"/><path d="m79.0222662 19.9412462-6.2957882 1.9974197c-1.2109858.3839863-2.1949397-1.1149422-1.4906499-2.270356l3.6628418-6.0085464c.454956-.7462562 1.4001048-.8834646 2.010281-.2882365 1.2551433 1.2259922 2.2837007 2.7594696 2.9781777 4.5338022.3251597.829667-.0793943 1.7866714-.8648624 2.035917"/><path d="m64.0687249 4.58953571c-1.1522179.30311427-2.2513822.70429493-3.2902374 1.19150655-.7209865.33788327-.9935103 1.21067408-.5940203 1.89089817l6.2558043 10.65134647c.701488 1.1950726 2.5597285.7056322 2.5597285-.6739835v-12.29930747c0-.78542257-.6797224-1.40769835-1.4764351-1.34573823-1.14723.0887055-2.3030755.28171798-3.45484.58527801"/></g></g></svg>