<?xml version="1.0" encoding="UTF-8"?>
<svg width="265px" height="100px" viewBox="0 0 265 100" version="1.1" xmlns="http://www.w3.org/2000/svg" xmlns:xlink="http://www.w3.org/1999/xlink">
    <!-- Generator: Sketch 46.2 (44496) - http://www.bohemiancoding.com/sketch -->
    <title>review-us-on-google</title>
    <desc>Created with Sketch.</desc>
    <defs></defs>
    <g id="Page-1" stroke="none" stroke-width="1" fill="none" fill-rule="evenodd">
        <g id="review-us-on-google">
            <rect id="Rectangle" fill="#4A92F6" x="0" y="0" width="265" height="100"></rect>
            <g id="google" transform="translate(59.000000, 12.000000)" fill="#FFFFFF">
                <text id="review-us-on" font-family="PTSans-Regular, PT Sans" font-size="20" font-weight="normal">
                    <tspan x="20.39" y="18">review us on</tspan>
                </text>
                <g id="stars" transform="translate(14.000000, 24.000000)">
                    <polygon id="Star-1" points="107 50 102 53 103 48 99 44 104 43 106 39 109 43 114 44 110 48 111 53"></polygon>
                    <polygon id="Star-1-Copy" points="84 50 79 53 80 48 76 44 81 43 83 39 86 43 91 44 87 48 88 53"></polygon>
                    <polygon id="Star-1-Copy-2" points="60 50 55 53 56 48 52 44 57 43 59 39 62 43 67 44 63 48 64 53"></polygon>
                    <polygon id="Star-1-Copy-3" points="37 50 32 53 33 48 29 44 34 43 36 39 39 43 44 44 40 48 41 53"></polygon>
                    <polygon id="Star-1-Copy-4" points="14 50 9 53 10 48 6 44 11 43 13 39 16 43 21 44 17 48 18 53"></polygon>
                    <g id="google" fill-rule="nonzero">
                        <path d="M27.7614044,13.2548048 L14.5849611,13.2548048 L14.5849611,17.218429 L23.9296794,17.218429 C23.468036,22.7764934 18.9065515,25.1467786 14.6007608,25.1467786 C9.09195349,25.1467786 4.28498862,20.7529425 4.28498862,14.5943961 C4.28498862,8.59509401 8.86728537,3.97476445 14.612929,3.97476445 C19.0457508,3.97476445 21.6577956,6.83943025 21.6577956,6.83943025 L24.3954375,3.96551296 C24.3954375,3.96551296 20.8816047,0 14.4730047,0 C6.31318881,0 0,6.98214739 0,14.5237678 C0,21.9136875 5.93865476,29.12 14.6813684,29.12 C22.3710734,29.12 28,23.7798988 28,15.8836364 C28,14.2176728 27.7614044,13.2548048 27.7614044,13.2548048 L27.7614044,13.2548048 Z" id="path2998"></path>
                        <path d="M38.0882636,10.08 C32.8639988,10.08 29.12,14.1821345 29.12,18.96648 C29.12,23.8215642 32.7514646,28 38.149659,28 C43.0364893,28 47.04,24.2485908 47.04,19.0708318 C47.04,13.1363872 42.3829855,10.08 38.0882636,10.08 L38.0882636,10.08 Z M38.1402131,13.5994915 C40.7093755,13.5994915 43.1438341,15.6855845 43.1438341,19.0471145 C43.1438341,22.3373328 40.7196091,24.4828811 38.1284061,24.4828811 C35.2811784,24.4828811 33.0350565,22.1925866 33.0350565,19.021028 C33.0350565,15.9174857 35.2533274,13.5994915 38.1402131,13.5994915 L38.1402131,13.5994915 Z" id="path3000"></path>
                        <path d="M58.2482653,10.08 C53.0239979,10.08 49.28,14.1821345 49.28,18.96648 C49.28,23.8215642 52.9114648,28 58.3096585,28 C63.1964891,28 67.2,24.2485908 67.2,19.0708318 C67.2,13.1363872 62.5429853,10.08 58.2482653,10.08 L58.2482653,10.08 Z M58.3002126,13.5994915 C60.8693751,13.5994915 63.3038339,15.6855845 63.3038339,19.0471145 C63.3038339,22.3373328 60.8796098,24.4828811 58.2884066,24.4828811 C55.4411777,24.4828811 53.1950556,22.1925866 53.1950556,19.021028 C53.1950556,15.9174857 55.4133267,13.5994915 58.3002126,13.5994915 L58.3002126,13.5994915 Z" id="path3005"></path>
                        <path d="M78.407422,10.08 C73.3865114,10.08 69.44,14.4442306 69.44,19.3426196 C69.44,24.9223416 74.0154202,28.6224152 78.320883,28.6224152 C80.9830763,28.6224152 82.3986538,27.5736723 83.443709,26.3699418 L83.443709,28.1979307 C83.443709,31.3962 81.4869487,33.3113863 78.5335106,33.3113863 C75.6803302,33.3113863 74.2491936,31.2059252 73.7518777,30.0111948 L70.1619427,31.5005757 C71.4355159,34.1729633 73.9991561,36.96 78.5631791,36.96 C83.5551775,36.96 87.36,33.8394494 87.36,27.2949778 L87.36,10.6369842 L83.443709,10.6369842 L83.443709,12.2073356 C82.2403558,10.9196402 80.5936863,10.08 78.407422,10.08 Z M78.770861,13.7138913 C81.2325162,13.7138913 83.7601769,15.7998566 83.7601769,19.3622492 C83.7601769,22.9831119 81.237904,24.9787086 78.7164686,24.9787086 C76.0397181,24.9787086 73.5491393,22.8217105 73.5491393,19.3966011 C73.5491393,15.8376055 76.1358388,13.7138913 78.770861,13.7138913 L78.770861,13.7138913 Z" id="path3007"></path>
                        <path d="M103.74427,10.08 C99.0997019,10.08 95.2,13.6907292 95.2,19.0186779 C95.2,24.6563468 99.5468197,28 104.190395,28 C108.066048,28 110.444731,25.9282541 111.864234,24.0720037 L108.697711,22.0132424 C107.876012,23.2592647 106.502333,24.4771241 104.209791,24.4771241 C101.634609,24.4771241 100.450569,23.0992863 99.7170145,21.7644845 L112,16.7845999 L111.362333,15.3252244 C110.175271,12.4672079 107.407083,10.08 103.74427,10.08 L103.74427,10.08 Z M103.904285,13.5223268 C105.577908,13.5223268 106.782368,14.3917782 107.293876,15.4342048 L99.0914706,18.7841352 C98.7378439,16.1905892 101.252416,13.5223268 103.904285,13.5223268 Z" id="path3011"></path>
                        <polygon id="path3015" points="89.6 28 94.08 28 94.08 1.12 89.6 1.12"></polygon>
                    </g>
                </g>
            </g>
            <g id="lines" transform="translate(20.000000, 25.000000)" stroke-width="2" stroke="#FFFFFF">
                <polyline id="Path-2" points="49 0 0 0 0 56 49 56"></polyline>
                <polyline id="Path-2-Copy" transform="translate(200.500000, 28.000000) scale(-1, 1) translate(-200.500000, -28.000000) " points="225 0 176 0 176 56 225 56"></polyline>
            </g>
        </g>
    </g>
</svg>