<?xml version="1.0" encoding="UTF-8"?>
<svg width="265px" height="100px" viewBox="0 0 265 100" version="1.1" xmlns="http://www.w3.org/2000/svg" xmlns:xlink="http://www.w3.org/1999/xlink">
    <!-- Generator: Sketch 46.2 (44496) - http://www.bohemiancoding.com/sketch -->
    <title>review-us-on-yelp</title>
    <desc>Created with Sketch.</desc>
    <defs></defs>
    <g id="Page-1" stroke="none" stroke-width="1" fill="none" fill-rule="evenodd">
        <g id="review-us-on-yelp">
            <rect id="Rectangle" fill="#D32323" x="0" y="0" width="265" height="100"></rect>
            <g id="yelp" transform="translate(59.000000, 12.000000)" fill="#FFFFFF">
                <path d="M26.65,9.54 C26.249998,9.406666 25.8700018,9.34 25.51,9.34 C24.9366638,9.34 24.483335,9.4966651 24.15,9.81 C23.816665,10.1233349 23.6100004,10.5199976 23.53,11 L23.53,18 L21.93,18 L21.93,8 L23.05,8 L23.35,9.22 L23.43,9.22 C23.6833346,8.7666644 23.9866649,8.4166679 24.34,8.17 C24.6933351,7.9233321 25.1433306,7.8 25.69,7.8 C26.0766686,7.8 26.5099976,7.866666 26.99,8 L26.65,9.54 Z M36.03,17.2 C35.629998,17.5200016 35.1266697,17.7733324 34.52,17.96 C33.9133303,18.1466676 33.2700034,18.24 32.59,18.24 C31.8299962,18.24 31.1700028,18.1166679 30.61,17.87 C30.0499972,17.6233321 29.5900018,17.2700023 29.23,16.81 C28.8699982,16.3499977 28.6033342,15.8000032 28.43,15.16 C28.2566658,14.5199968 28.17,13.800004 28.17,13 C28.17,11.2933248 28.5499962,9.9933378 29.31,9.1 C30.0700038,8.2066622 31.1566596,7.76 32.57,7.76 C33.0233356,7.76 33.4766644,7.8099995 33.93,7.91 C34.3833356,8.0100005 34.7899982,8.1999986 35.15,8.48 C35.5100018,8.7600014 35.8033322,9.1566641 36.03,9.67 C36.2566678,10.1833359 36.37,10.8599958 36.37,11.7 C36.37,12.1400022 36.3300004,12.626664 36.25,13.16 L29.83,13.16 C29.83,13.7466696 29.8899994,14.2666644 30.01,14.72 C30.1300006,15.1733356 30.3166654,15.5566651 30.57,15.87 C30.8233346,16.1833349 31.1533313,16.4233325 31.56,16.59 C31.9666687,16.7566675 32.4633304,16.84 33.05,16.84 C33.5033356,16.84 33.9566644,16.7600008 34.41,16.6 C34.8633356,16.4399992 35.2033322,16.2533344 35.43,16.04 L36.03,17.2 Z M32.59,9.16 C31.8033294,9.16 31.1733357,9.3666646 30.7,9.78 C30.2266643,10.1933354 29.9433338,10.899995 29.85,11.9 L34.81,11.9 C34.81,10.8866616 34.6166686,10.1766687 34.23,9.77 C33.8433314,9.3633313 33.2966702,9.16 32.59,9.16 Z M41.33,13.86 L41.89,15.76 L41.91,15.76 L42.41,13.82 L44.65,8 L46.37,8 L42.11,18.22 L41.43,18.22 L37.09,8 L38.93,8 L41.33,13.86 Z M48.43,8 L50.03,8 L50.03,18 L48.43,18 L48.43,8 Z M48.09,4.96 C48.09,4.6533318 48.1933323,4.3900011 48.4,4.17 C48.6066677,3.9499989 48.8699984,3.84 49.19,3.84 C49.5100016,3.84 49.7833322,3.9499989 50.01,4.17 C50.2366678,4.3900011 50.35,4.6533318 50.35,4.96 C50.35,5.2666682 50.2366678,5.519999 50.01,5.72 C49.7833322,5.920001 49.5100016,6.02 49.19,6.02 C48.8699984,6.02 48.6066677,5.920001 48.4,5.72 C48.1933323,5.519999 48.09,5.2666682 48.09,4.96 Z M60.75,17.2 C60.349998,17.5200016 59.8466697,17.7733324 59.24,17.96 C58.6333303,18.1466676 57.9900034,18.24 57.31,18.24 C56.5499962,18.24 55.8900028,18.1166679 55.33,17.87 C54.7699972,17.6233321 54.3100018,17.2700023 53.95,16.81 C53.5899982,16.3499977 53.3233342,15.8000032 53.15,15.16 C52.9766658,14.5199968 52.89,13.800004 52.89,13 C52.89,11.2933248 53.2699962,9.9933378 54.03,9.1 C54.7900038,8.2066622 55.8766596,7.76 57.29,7.76 C57.7433356,7.76 58.1966644,7.8099995 58.65,7.91 C59.1033356,8.0100005 59.5099982,8.1999986 59.87,8.48 C60.2300018,8.7600014 60.5233322,9.1566641 60.75,9.67 C60.9766678,10.1833359 61.09,10.8599958 61.09,11.7 C61.09,12.1400022 61.0500004,12.626664 60.97,13.16 L54.55,13.16 C54.55,13.7466696 54.6099994,14.2666644 54.73,14.72 C54.8500006,15.1733356 55.0366654,15.5566651 55.29,15.87 C55.5433346,16.1833349 55.8733313,16.4233325 56.28,16.59 C56.6866687,16.7566675 57.1833304,16.84 57.77,16.84 C58.2233356,16.84 58.6766644,16.7600008 59.13,16.6 C59.5833356,16.4399992 59.9233322,16.2533344 60.15,16.04 L60.75,17.2 Z M57.31,9.16 C56.5233294,9.16 55.8933357,9.3666646 55.42,9.78 C54.9466643,10.1933354 54.6633338,10.899995 54.57,11.9 L59.53,11.9 C59.53,10.8866616 59.3366686,10.1766687 58.95,9.77 C58.5633314,9.3633313 58.0166702,9.16 57.31,9.16 Z M69.87,8 L72.17,13.84 L72.67,15.76 L72.71,15.76 L73.09,13.8 L74.87,8 L76.39,8 L73.03,18.22 L72.25,18.22 L69.63,11.62 L69.25,9.98 L69.19,9.98 L68.79,11.64 L66.27,18.22 L65.49,18.22 L62.01,8 L63.75,8 L65.73,13.82 L66.07,15.76 L66.09,15.76 L66.57,13.78 L68.71,8 L69.87,8 Z M84.39,8 L84.39,13.7 C84.39,14.2200026 84.4199997,14.6766647 84.48,15.07 C84.5400003,15.4633353 84.6433326,15.7899987 84.79,16.05 C84.9366674,16.3100013 85.1366654,16.506666 85.39,16.64 C85.6433346,16.773334 85.9633314,16.84 86.35,16.84 C86.7100018,16.84 87.0299986,16.7833339 87.31,16.67 C87.5900014,16.5566661 87.8399989,16.400001 88.06,16.2 C88.2800011,15.999999 88.4733325,15.7700013 88.64,15.51 C88.8066675,15.2499987 88.9433328,14.9733348 89.05,14.68 L89.05,8 L90.65,8 L90.65,15.16 C90.65,15.6400024 90.6666665,16.1366641 90.7,16.65 C90.7333335,17.1633359 90.7899996,17.6133314 90.87,18 L89.77,18 L89.37,16.42 L89.27,16.42 C88.9633318,16.9400026 88.5500026,17.3733316 88.03,17.72 C87.5099974,18.0666684 86.850004,18.24 86.05,18.24 C85.516664,18.24 85.0466687,18.1766673 84.64,18.05 C84.2333313,17.9233327 83.8933347,17.7000016 83.62,17.38 C83.3466653,17.0599984 83.1400007,16.6300027 83,16.09 C82.8599993,15.5499973 82.79,14.8666708 82.79,14.04 L82.79,8 L84.39,8 Z M98.13,15.28 C98.13,14.879998 98.0100012,14.5666678 97.77,14.34 C97.5299988,14.1133322 97.2333351,13.9233341 96.88,13.77 C96.5266649,13.6166659 96.1400021,13.4700007 95.72,13.33 C95.2999979,13.1899993 94.9133351,13.0100011 94.56,12.79 C94.2066649,12.5699989 93.9100012,12.2866684 93.67,11.94 C93.4299988,11.5933316 93.31,11.1266696 93.31,10.54 C93.31,9.5799952 93.5833306,8.8766689 94.13,8.43 C94.6766694,7.9833311 95.4366618,7.76 96.41,7.76 C97.1300036,7.76 97.7333309,7.8233327 98.22,7.95 C98.7066691,8.0766673 99.1299982,8.2266658 99.49,8.4 L99.11,9.72 C98.8033318,9.5733326 98.4333355,9.4433339 98,9.33 C97.5666645,9.2166661 97.1033358,9.16 96.61,9.16 C96.0233304,9.16 95.5933347,9.259999 95.32,9.46 C95.0466653,9.660001 94.91,10.0066642 94.91,10.5 C94.91,10.8466684 95.0299988,11.1166657 95.27,11.31 C95.5100012,11.5033343 95.8066649,11.6766659 96.16,11.83 C96.5133351,11.9833341 96.8999979,12.1333326 97.32,12.28 C97.7400021,12.4266674 98.1266649,12.6199988 98.48,12.86 C98.8333351,13.1000012 99.1299988,13.4033315 99.37,13.77 C99.6100012,14.1366685 99.73,14.619997 99.73,15.22 C99.73,15.6466688 99.6600007,16.0466648 99.52,16.42 C99.3799993,16.7933352 99.1633348,17.113332 98.87,17.38 C98.5766652,17.646668 98.2133355,17.8566659 97.78,18.01 C97.3466645,18.1633341 96.8366696,18.24 96.25,18.24 C95.4899962,18.24 94.843336,18.1666674 94.31,18.02 C93.776664,17.8733326 93.3300018,17.700001 92.97,17.5 L93.45,16.14 C93.7566682,16.3133342 94.1566642,16.4733326 94.65,16.62 C95.1433358,16.7666674 95.6433308,16.84 96.15,16.84 C96.7233362,16.84 97.1966648,16.7266678 97.57,16.5 C97.9433352,16.2733322 98.13,15.8666696 98.13,15.28 Z M106.93,13 C106.93,11.3066582 107.306663,10.0100045 108.06,9.11 C108.813337,8.2099955 109.89666,7.76 111.31,7.76 C112.05667,7.76 112.706664,7.8833321 113.26,8.13 C113.813336,8.3766679 114.269998,8.7299977 114.63,9.19 C114.990002,9.6500023 115.256666,10.2033301 115.43,10.85 C115.603334,11.4966699 115.69,12.2133294 115.69,13 C115.69,14.6933418 115.313337,15.9899955 114.56,16.89 C113.806663,17.7900045 112.72334,18.24 111.31,18.24 C110.56333,18.24 109.913336,18.1166679 109.36,17.87 C108.806664,17.6233321 108.350002,17.2700023 107.99,16.81 C107.629998,16.3499977 107.363334,15.7966699 107.19,15.15 C107.016666,14.5033301 106.93,13.7866706 106.93,13 Z M108.59,13 C108.59,13.5066692 108.64,13.993331 108.74,14.46 C108.840001,14.926669 108.996666,15.3333316 109.21,15.68 C109.423334,16.0266684 109.703332,16.3066656 110.05,16.52 C110.396668,16.7333344 110.816664,16.84 111.31,16.84 C113.123342,16.8533334 114.03,15.5733462 114.03,13 C114.03,12.4799974 113.980001,11.986669 113.88,11.52 C113.78,11.053331 113.623334,10.6466684 113.41,10.3 C113.196666,9.9533316 112.916668,9.6766677 112.57,9.47 C112.223332,9.2633323 111.803336,9.16 111.31,9.16 C109.496658,9.1466666 108.59,10.4266538 108.59,13 Z M124.63,18 L124.63,12.3 C124.63,11.2599948 124.480001,10.4766693 124.18,9.95 C123.879998,9.4233307 123.330004,9.16 122.53,9.16 C121.82333,9.16 121.240002,9.3499981 120.78,9.73 C120.319998,10.1100019 119.996668,10.5866638 119.81,11.16 L119.81,18 L118.21,18 L118.21,8 L119.33,8 L119.63,9.22 L119.71,9.22 C120.030002,8.7933312 120.459997,8.4433347 121,8.17 C121.540003,7.8966653 122.18333,7.76 122.93,7.76 C123.476669,7.76 123.956665,7.8233327 124.37,7.95 C124.783335,8.0766673 125.126665,8.2999984 125.4,8.62 C125.673335,8.9400016 125.879999,9.3699973 126.02,9.91 C126.160001,10.4500027 126.23,11.1333292 126.23,11.96 L126.23,18 L124.63,18 Z" id="review-us-on"></path>
                <g id="stars" transform="translate(20.000000, 63.000000)">
                    <polygon id="Star-1" points="101 11 96 14 97 9 93 5 98 4 100 0 103 4 108 5 104 9 105 14"></polygon>
                    <polygon id="Star-1-Copy" points="78 11 73 14 74 9 70 5 75 4 77 0 80 4 85 5 81 9 82 14"></polygon>
                    <polygon id="Star-1-Copy-2" points="54 11 49 14 50 9 46 5 51 4 53 0 56 4 61 5 57 9 58 14"></polygon>
                    <polygon id="Star-1-Copy-3" points="31 11 26 14 27 9 23 5 28 4 30 0 33 4 38 5 34 9 35 14"></polygon>
                    <polygon id="Star-1-Copy-4" points="8 11 3 14 4 9 0 5 5 4 7 0 10 4 15 5 11 9 12 14"></polygon>
                </g>
            </g>
            <g id="lines" transform="translate(20.000000, 25.000000)" stroke-width="2" stroke="#FFFFFF">
                <polyline id="Path-2" points="49 0 0 0 0 56 49 56"></polyline>
                <polyline id="Path-2-Copy" transform="translate(200.500000, 28.000000) scale(-1, 1) translate(-200.500000, -28.000000) " points="225 0 176 0 176 56 225 56"></polyline>
            </g>
            <g id="Yelp_trademark_RGB" transform="translate(92.000000, 30.000000)" fill="#FFFFFF">
                <path d="M57.7889649,29.9431629 L57.9860882,29.9431629 C58.1464277,29.9431629 58.2959208,29.9346017 58.2959208,29.7524376 C58.2959208,29.5916766 58.1596322,29.572176 58.0360764,29.572176 L57.7889649,29.572176 L57.7889649,29.9431629 Z M57.6281537,29.4271106 L58.050224,29.4271106 C58.3251592,29.4271106 58.4548456,29.5293698 58.4548456,29.7609988 C58.4548456,29.9674197 58.3228012,30.0558859 58.150672,30.0749108 L58.4821976,30.5866825 L58.3086536,30.5866825 L57.9945768,30.0877527 L57.7889649,30.0877527 L57.7889649,30.5866825 L57.6281537,30.5866825 L57.6281537,29.4271106 Z M57.9997642,30.854459 C58.4661636,30.854459 58.8396605,30.4848989 58.8396605,29.9950059 C58.8396605,29.5146254 58.4661636,29.1450654 57.9997642,29.1450654 C57.5328932,29.1450654 57.1593964,29.5146254 57.1593964,30.0049941 C57.1593964,30.4848989 57.5328932,30.854459 57.9997642,30.854459 Z M57.9997642,29 C58.5435039,29 59,29.4299643 59,29.9950059 C59,30.5700357 58.5435039,31 57.9997642,31 C57.4555529,31 57,30.5700357 57,30.0049941 C57,29.4299643 57.4555529,29 57.9997642,29 L57.9997642,29 Z" id="Fill-2"></path>
                <path d="M38,33.2427556 C38,34.2129591 37.1046435,35 36.0002646,35 C34.8953565,35 34,34.2129591 34,33.2427556 L34,15.7572444 C34,14.7865761 34.8953565,14 36.0002646,14 C37.1046435,14 38,14.7865761 38,15.7572444 L38,33.2427556" id="Fill-3"></path>
                <path d="M21.5424582,25.2212977 C21.6535734,22.8074767 23.3974646,22.4108742 24.1814441,22.4108742 C24.9698328,22.4108742 26.720338,22.8125614 26.813375,25.2619749 C26.813375,25.3918646 26.747235,25.4681343 26.674481,25.4681343 L21.6875253,25.4681343 C21.6068345,25.4681343 21.5340805,25.383082 21.5424582,25.2212977 Z M22.2673526,28.3437337 L28.254345,28.3502051 C28.2957928,28.3502051 28.3367996,28.3469694 28.3782473,28.3437337 C29.2089656,28.2780956 29.9964725,27.5556133 29.9995591,26.3986248 C29.9995591,26.3963136 30,26.3940024 30,26.3921535 C29.9986772,26.3616456 29.9955907,26.3334489 29.9942679,26.3034032 C29.6970788,19.9235569 25.7890869,19 24.016535,19 C22.1738747,19 18,20.1403478 18,27.2338938 C18.0317472,29.9014849 18.5767408,35 23.9279074,35 C28.5502113,35 29.5850818,32.2011325 29.5850818,31.4874328 C29.5850818,30.4339862 28.7481903,29.5409372 27.8032703,29.8769862 C27.0364872,30.1497082 25.9848613,31.75091 24.2903546,31.75091 C21.8656623,31.75091 21.5512769,29.4267637 21.5512769,28.9317039 C21.5512769,28.5230831 21.7549881,28.3640723 22.2673526,28.3437337 L22.2673526,28.3437337 Z" id="Fill-4"></path>
                <path d="M8.33522216,32.7372181 L3.17248392,21.5767278 C2.7610912,20.687929 3.11084059,19.6160201 3.95329945,19.1819985 C4.79619549,18.7479769 5.81221747,19.1169644 6.2236102,20.0057632 L10.2208086,28.6469909 L12.6804212,20.2617484 C12.9575976,19.3171402 13.9080416,18.7881042 14.8038372,19.0805269 C15.6996328,19.3729495 16.201086,20.3761345 15.9234725,21.3207427 C15.9234725,21.3207427 13.1591407,30.8599938 11.4973939,36.3408429 C10.9478501,38.1539556 9.50688263,39.0533628 7.3480545,38.9975534 C5.21239726,38.9431278 4.8814469,37.6147725 5.11796493,36.738427 C5.37852823,35.7749082 6.14054472,35.4838693 6.88682249,35.4880204 C8.81612758,35.4986288 9.06182653,34.2652879 8.33522216,32.7372181" id="Fill-5"></path>
                <path d="M50.7179036,27.8085361 C50.7179036,29.1975959 50.7179036,31.6907445 48.349055,31.6907445 C45.973665,31.6907445 45.9802064,29.1975959 45.9802064,27.8085361 L45.9802064,26.53988 C45.9802064,25.1508202 45.9802064,22.6576716 48.349055,22.6576716 C50.724445,22.6576716 50.7179036,25.1508202 50.7179036,26.53988 L50.7179036,27.8085361 Z M53.9829201,26.474332 C53.9829201,24.1685299 53.7169043,21.0087442 50.9856638,19.6252629 C49.4449528,18.8451951 47.5466468,18.8591415 46.0874849,19.7582184 C45.7948676,19.9385916 45.5048668,20.1380249 45.248445,20.342107 C45.0735723,19.5722666 44.4242322,19 43.6484256,19 C42.7383028,19 42,19.7865761 42,20.7572444 L42,38.2427556 C42,39.2134239 42.7383028,40 43.6484256,40 C44.5585484,40 45.2968512,39.2134239 45.2968512,38.2427556 L45.2968512,33.6539304 C45.2968512,33.6539304 46.4040873,35.1011002 48.1667688,35.1499126 C54.4272973,35.3237775 54.0169352,28.0656144 53.9829201,26.474332 L53.9829201,26.474332 Z" id="Fill-6"></path>
                <path d="M59.4447262,18.1344606 L65.2522796,20.942656 C66.3689984,21.4828278 66.1965185,23.1120699 64.9904799,23.4100807 L58.721807,24.9603476 C57.9399279,25.1536401 57.1677288,24.6187042 57.0753289,23.8245905 C56.8782091,22.126409 57.0731289,20.4496074 57.5993683,18.8967225 C57.855008,18.1427508 58.723567,17.7853996 59.4447262,18.1344606" id="Fill-7"></path>
                <path d="M62.3427962,30.172674 L66.674501,25.4374242 C67.5078603,24.5265655 69.0427407,25.1366976 68.9990885,26.3617352 L68.7733319,32.7316703 C68.7451123,33.5257967 68.0127262,34.1133634 67.216846,33.981443 C65.5430724,33.7050176 63.9601306,33.0684146 62.5778123,32.1341228 C61.9137704,31.6849857 61.8039786,30.7619765 62.3427962,30.172674" id="Fill-8"></path>
                <path d="M72.7850526,23.0758786 L79.0590764,25.2815606 C79.8400156,25.5561772 80.2210492,26.5122319 79.8669755,27.3137237 C79.1309696,28.9818374 78.0633565,30.472058 76.7297389,31.6628735 C76.095282,32.2291184 75.1449447,32.0628903 74.7090926,31.3080591 L71.211941,25.2538559 C70.5392909,24.089773 71.5776973,22.6520455 72.7850526,23.0758786" id="Fill-9"></path>
                <path d="M79.0222662,19.9412462 L72.726478,21.9386659 C71.5154922,22.3226522 70.5315383,20.8237237 71.2358281,19.6683099 L74.8986699,13.6597635 C75.3536259,12.9135073 76.2987747,12.7762989 76.9089509,13.371527 C78.1640942,14.5975192 79.1926516,16.1309966 79.8871286,17.9053292 C80.2122883,18.7349962 79.8077343,19.6920006 79.0222662,19.9412462" id="Fill-10"></path>
                <path d="M64.0687249,4.58953571 C62.916507,4.89264998 61.8173427,5.29383064 60.7784875,5.78104226 C60.057501,6.11892553 59.7849772,6.99171634 60.1844672,7.67194043 L66.4402715,18.3232869 C67.1417595,19.5183595 69,19.0289191 69,17.6493034 L69,5.34999593 C69,4.56457336 68.3202776,3.94229758 67.5235649,4.0042577 C66.3763349,4.0929632 65.2204894,4.28597568 64.0687249,4.58953571" id="Fill-11"></path>
            </g>
        </g>
    </g>
</svg>