<?xml version="1.0" encoding="UTF-8"?>
<svg width="265px" height="100px" viewBox="0 0 265 100" version="1.1" xmlns="http://www.w3.org/2000/svg" xmlns:xlink="http://www.w3.org/1999/xlink">
    <!-- Generator: Sketch 46.2 (44496) - http://www.bohemiancoding.com/sketch -->
    <title>review-us-on-yelp</title>
    <desc>Created with Sketch.</desc>
    <defs></defs>
    <g id="Page-1" stroke="none" stroke-width="1" fill="none" fill-rule="evenodd">
        <g id="review-us-on-yelp">
            <rect id="Rectangle" fill="#D32323" x="0" y="0" width="265" height="100"></rect>
            <g id="yelp" transform="translate(59.000000, 12.000000)" fill="#FFFFFF">
                <text id="review-us-on" font-family="PTSans-Regular, PT Sans" font-size="20" font-weight="normal">
                    <tspan x="20.39" y="18">review us on</tspan>
                </text>
                <g id="stars" transform="translate(20.000000, 63.000000)">
                    <polygon id="Star-1" points="101 11 96 14 97 9 93 5 98 4 100 0 103 4 108 5 104 9 105 14"></polygon>
                    <polygon id="Star-1-Copy" points="78 11 73 14 74 9 70 5 75 4 77 0 80 4 85 5 81 9 82 14"></polygon>
                    <polygon id="Star-1-Copy-2" points="54 11 49 14 50 9 46 5 51 4 53 0 56 4 61 5 57 9 58 14"></polygon>
                    <polygon id="Star-1-Copy-3" points="31 11 26 14 27 9 23 5 28 4 30 0 33 4 38 5 34 9 35 14"></polygon>
                    <polygon id="Star-1-Copy-4" points="8 11 3 14 4 9 0 5 5 4 7 0 10 4 15 5 11 9 12 14"></polygon>
                </g>
            </g>
            <g id="lines" transform="translate(20.000000, 25.000000)" stroke-width="2" stroke="#FFFFFF">
                <polyline id="Path-2" points="49 0 0 0 0 56 49 56"></polyline>
                <polyline id="Path-2-Copy" transform="translate(200.500000, 28.000000) scale(-1, 1) translate(-200.500000, -28.000000) " points="225 0 176 0 176 56 225 56"></polyline>
            </g>
            <g id="Yelp_trademark_RGB" transform="translate(92.000000, 30.000000)" fill="#FFFFFF">
                <path d="M57.7889649,29.9431629 L57.9860882,29.9431629 C58.1464277,29.9431629 58.2959208,29.9346017 58.2959208,29.7524376 C58.2959208,29.5916766 58.1596322,29.572176 58.0360764,29.572176 L57.7889649,29.572176 L57.7889649,29.9431629 Z M57.6281537,29.4271106 L58.050224,29.4271106 C58.3251592,29.4271106 58.4548456,29.5293698 58.4548456,29.7609988 C58.4548456,29.9674197 58.3228012,30.0558859 58.150672,30.0749108 L58.4821976,30.5866825 L58.3086536,30.5866825 L57.9945768,30.0877527 L57.7889649,30.0877527 L57.7889649,30.5866825 L57.6281537,30.5866825 L57.6281537,29.4271106 Z M57.9997642,30.854459 C58.4661636,30.854459 58.8396605,30.4848989 58.8396605,29.9950059 C58.8396605,29.5146254 58.4661636,29.1450654 57.9997642,29.1450654 C57.5328932,29.1450654 57.1593964,29.5146254 57.1593964,30.0049941 C57.1593964,30.4848989 57.5328932,30.854459 57.9997642,30.854459 Z M57.9997642,29 C58.5435039,29 59,29.4299643 59,29.9950059 C59,30.5700357 58.5435039,31 57.9997642,31 C57.4555529,31 57,30.5700357 57,30.0049941 C57,29.4299643 57.4555529,29 57.9997642,29 L57.9997642,29 Z" id="Fill-2"></path>
                <path d="M38,33.2427556 C38,34.2129591 37.1046435,35 36.0002646,35 C34.8953565,35 34,34.2129591 34,33.2427556 L34,15.7572444 C34,14.7865761 34.8953565,14 36.0002646,14 C37.1046435,14 38,14.7865761 38,15.7572444 L38,33.2427556" id="Fill-3"></path>
                <path d="M21.5424582,25.2212977 C21.6535734,22.8074767 23.3974646,22.4108742 24.1814441,22.4108742 C24.9698328,22.4108742 26.720338,22.8125614 26.813375,25.2619749 C26.813375,25.3918646 26.747235,25.4681343 26.674481,25.4681343 L21.6875253,25.4681343 C21.6068345,25.4681343 21.5340805,25.383082 21.5424582,25.2212977 Z M22.2673526,28.3437337 L28.254345,28.3502051 C28.2957928,28.3502051 28.3367996,28.3469694 28.3782473,28.3437337 C29.2089656,28.2780956 29.9964725,27.5556133 29.9995591,26.3986248 C29.9995591,26.3963136 30,26.3940024 30,26.3921535 C29.9986772,26.3616456 29.9955907,26.3334489 29.9942679,26.3034032 C29.6970788,19.9235569 25.7890869,19 24.016535,19 C22.1738747,19 18,20.1403478 18,27.2338938 C18.0317472,29.9014849 18.5767408,35 23.9279074,35 C28.5502113,35 29.5850818,32.2011325 29.5850818,31.4874328 C29.5850818,30.4339862 28.7481903,29.5409372 27.8032703,29.8769862 C27.0364872,30.1497082 25.9848613,31.75091 24.2903546,31.75091 C21.8656623,31.75091 21.5512769,29.4267637 21.5512769,28.9317039 C21.5512769,28.5230831 21.7549881,28.3640723 22.2673526,28.3437337 L22.2673526,28.3437337 Z" id="Fill-4"></path>
                <path d="M8.33522216,32.7372181 L3.17248392,21.5767278 C2.7610912,20.687929 3.11084059,19.6160201 3.95329945,19.1819985 C4.79619549,18.7479769 5.81221747,19.1169644 6.2236102,20.0057632 L10.2208086,28.6469909 L12.6804212,20.2617484 C12.9575976,19.3171402 13.9080416,18.7881042 14.8038372,19.0805269 C15.6996328,19.3729495 16.201086,20.3761345 15.9234725,21.3207427 C15.9234725,21.3207427 13.1591407,30.8599938 11.4973939,36.3408429 C10.9478501,38.1539556 9.50688263,39.0533628 7.3480545,38.9975534 C5.21239726,38.9431278 4.8814469,37.6147725 5.11796493,36.738427 C5.37852823,35.7749082 6.14054472,35.4838693 6.88682249,35.4880204 C8.81612758,35.4986288 9.06182653,34.2652879 8.33522216,32.7372181" id="Fill-5"></path>
                <path d="M50.7179036,27.8085361 C50.7179036,29.1975959 50.7179036,31.6907445 48.349055,31.6907445 C45.973665,31.6907445 45.9802064,29.1975959 45.9802064,27.8085361 L45.9802064,26.53988 C45.9802064,25.1508202 45.9802064,22.6576716 48.349055,22.6576716 C50.724445,22.6576716 50.7179036,25.1508202 50.7179036,26.53988 L50.7179036,27.8085361 Z M53.9829201,26.474332 C53.9829201,24.1685299 53.7169043,21.0087442 50.9856638,19.6252629 C49.4449528,18.8451951 47.5466468,18.8591415 46.0874849,19.7582184 C45.7948676,19.9385916 45.5048668,20.1380249 45.248445,20.342107 C45.0735723,19.5722666 44.4242322,19 43.6484256,19 C42.7383028,19 42,19.7865761 42,20.7572444 L42,38.2427556 C42,39.2134239 42.7383028,40 43.6484256,40 C44.5585484,40 45.2968512,39.2134239 45.2968512,38.2427556 L45.2968512,33.6539304 C45.2968512,33.6539304 46.4040873,35.1011002 48.1667688,35.1499126 C54.4272973,35.3237775 54.0169352,28.0656144 53.9829201,26.474332 L53.9829201,26.474332 Z" id="Fill-6"></path>
                <path d="M59.4447262,18.1344606 L65.2522796,20.942656 C66.3689984,21.4828278 66.1965185,23.1120699 64.9904799,23.4100807 L58.721807,24.9603476 C57.9399279,25.1536401 57.1677288,24.6187042 57.0753289,23.8245905 C56.8782091,22.126409 57.0731289,20.4496074 57.5993683,18.8967225 C57.855008,18.1427508 58.723567,17.7853996 59.4447262,18.1344606" id="Fill-7"></path>
                <path d="M62.3427962,30.172674 L66.674501,25.4374242 C67.5078603,24.5265655 69.0427407,25.1366976 68.9990885,26.3617352 L68.7733319,32.7316703 C68.7451123,33.5257967 68.0127262,34.1133634 67.216846,33.981443 C65.5430724,33.7050176 63.9601306,33.0684146 62.5778123,32.1341228 C61.9137704,31.6849857 61.8039786,30.7619765 62.3427962,30.172674" id="Fill-8"></path>
                <path d="M72.7850526,23.0758786 L79.0590764,25.2815606 C79.8400156,25.5561772 80.2210492,26.5122319 79.8669755,27.3137237 C79.1309696,28.9818374 78.0633565,30.472058 76.7297389,31.6628735 C76.095282,32.2291184 75.1449447,32.0628903 74.7090926,31.3080591 L71.211941,25.2538559 C70.5392909,24.089773 71.5776973,22.6520455 72.7850526,23.0758786" id="Fill-9"></path>
                <path d="M79.0222662,19.9412462 L72.726478,21.9386659 C71.5154922,22.3226522 70.5315383,20.8237237 71.2358281,19.6683099 L74.8986699,13.6597635 C75.3536259,12.9135073 76.2987747,12.7762989 76.9089509,13.371527 C78.1640942,14.5975192 79.1926516,16.1309966 79.8871286,17.9053292 C80.2122883,18.7349962 79.8077343,19.6920006 79.0222662,19.9412462" id="Fill-10"></path>
                <path d="M64.0687249,4.58953571 C62.916507,4.89264998 61.8173427,5.29383064 60.7784875,5.78104226 C60.057501,6.11892553 59.7849772,6.99171634 60.1844672,7.67194043 L66.4402715,18.3232869 C67.1417595,19.5183595 69,19.0289191 69,17.6493034 L69,5.34999593 C69,4.56457336 68.3202776,3.94229758 67.5235649,4.0042577 C66.3763349,4.0929632 65.2204894,4.28597568 64.0687249,4.58953571" id="Fill-11"></path>
            </g>
        </g>
    </g>
</svg>