<?xml version="1.0" encoding="UTF-8"?>
<svg width="265px" height="100px" viewBox="0 0 265 100" version="1.1" xmlns="http://www.w3.org/2000/svg" xmlns:xlink="http://www.w3.org/1999/xlink">
    <!-- Generator: Sketch 46.2 (44496) - http://www.bohemiancoding.com/sketch -->
    <title>review-us-on-google</title>
    <desc>Created with Sketch.</desc>
    <defs></defs>
    <g id="Page-1" stroke="none" stroke-width="1" fill="none" fill-rule="evenodd">
        <g id="review-us-on-google">
            <rect id="Rectangle" fill="#4A92F6" x="0" y="0" width="265" height="100"></rect>
            <g id="google" transform="translate(59.000000, 12.000000)" fill="#FFFFFF">
                <path d="M26.65,9.54 C26.249998,9.406666 25.8700018,9.34 25.51,9.34 C24.9366638,9.34 24.483335,9.4966651 24.15,9.81 C23.816665,10.1233349 23.6100004,10.5199976 23.53,11 L23.53,18 L21.93,18 L21.93,8 L23.05,8 L23.35,9.22 L23.43,9.22 C23.6833346,8.7666644 23.9866649,8.4166679 24.34,8.17 C24.6933351,7.9233321 25.1433306,7.8 25.69,7.8 C26.0766686,7.8 26.5099976,7.866666 26.99,8 L26.65,9.54 Z M36.03,17.2 C35.629998,17.5200016 35.1266697,17.7733324 34.52,17.96 C33.9133303,18.1466676 33.2700034,18.24 32.59,18.24 C31.8299962,18.24 31.1700028,18.1166679 30.61,17.87 C30.0499972,17.6233321 29.5900018,17.2700023 29.23,16.81 C28.8699982,16.3499977 28.6033342,15.8000032 28.43,15.16 C28.2566658,14.5199968 28.17,13.800004 28.17,13 C28.17,11.2933248 28.5499962,9.9933378 29.31,9.1 C30.0700038,8.2066622 31.1566596,7.76 32.57,7.76 C33.0233356,7.76 33.4766644,7.8099995 33.93,7.91 C34.3833356,8.0100005 34.7899982,8.1999986 35.15,8.48 C35.5100018,8.7600014 35.8033322,9.1566641 36.03,9.67 C36.2566678,10.1833359 36.37,10.8599958 36.37,11.7 C36.37,12.1400022 36.3300004,12.626664 36.25,13.16 L29.83,13.16 C29.83,13.7466696 29.8899994,14.2666644 30.01,14.72 C30.1300006,15.1733356 30.3166654,15.5566651 30.57,15.87 C30.8233346,16.1833349 31.1533313,16.4233325 31.56,16.59 C31.9666687,16.7566675 32.4633304,16.84 33.05,16.84 C33.5033356,16.84 33.9566644,16.7600008 34.41,16.6 C34.8633356,16.4399992 35.2033322,16.2533344 35.43,16.04 L36.03,17.2 Z M32.59,9.16 C31.8033294,9.16 31.1733357,9.3666646 30.7,9.78 C30.2266643,10.1933354 29.9433338,10.899995 29.85,11.9 L34.81,11.9 C34.81,10.8866616 34.6166686,10.1766687 34.23,9.77 C33.8433314,9.3633313 33.2966702,9.16 32.59,9.16 Z M41.33,13.86 L41.89,15.76 L41.91,15.76 L42.41,13.82 L44.65,8 L46.37,8 L42.11,18.22 L41.43,18.22 L37.09,8 L38.93,8 L41.33,13.86 Z M48.43,8 L50.03,8 L50.03,18 L48.43,18 L48.43,8 Z M48.09,4.96 C48.09,4.6533318 48.1933323,4.3900011 48.4,4.17 C48.6066677,3.9499989 48.8699984,3.84 49.19,3.84 C49.5100016,3.84 49.7833322,3.9499989 50.01,4.17 C50.2366678,4.3900011 50.35,4.6533318 50.35,4.96 C50.35,5.2666682 50.2366678,5.519999 50.01,5.72 C49.7833322,5.920001 49.5100016,6.02 49.19,6.02 C48.8699984,6.02 48.6066677,5.920001 48.4,5.72 C48.1933323,5.519999 48.09,5.2666682 48.09,4.96 Z M60.75,17.2 C60.349998,17.5200016 59.8466697,17.7733324 59.24,17.96 C58.6333303,18.1466676 57.9900034,18.24 57.31,18.24 C56.5499962,18.24 55.8900028,18.1166679 55.33,17.87 C54.7699972,17.6233321 54.3100018,17.2700023 53.95,16.81 C53.5899982,16.3499977 53.3233342,15.8000032 53.15,15.16 C52.9766658,14.5199968 52.89,13.800004 52.89,13 C52.89,11.2933248 53.2699962,9.9933378 54.03,9.1 C54.7900038,8.2066622 55.8766596,7.76 57.29,7.76 C57.7433356,7.76 58.1966644,7.8099995 58.65,7.91 C59.1033356,8.0100005 59.5099982,8.1999986 59.87,8.48 C60.2300018,8.7600014 60.5233322,9.1566641 60.75,9.67 C60.9766678,10.1833359 61.09,10.8599958 61.09,11.7 C61.09,12.1400022 61.0500004,12.626664 60.97,13.16 L54.55,13.16 C54.55,13.7466696 54.6099994,14.2666644 54.73,14.72 C54.8500006,15.1733356 55.0366654,15.5566651 55.29,15.87 C55.5433346,16.1833349 55.8733313,16.4233325 56.28,16.59 C56.6866687,16.7566675 57.1833304,16.84 57.77,16.84 C58.2233356,16.84 58.6766644,16.7600008 59.13,16.6 C59.5833356,16.4399992 59.9233322,16.2533344 60.15,16.04 L60.75,17.2 Z M57.31,9.16 C56.5233294,9.16 55.8933357,9.3666646 55.42,9.78 C54.9466643,10.1933354 54.6633338,10.899995 54.57,11.9 L59.53,11.9 C59.53,10.8866616 59.3366686,10.1766687 58.95,9.77 C58.5633314,9.3633313 58.0166702,9.16 57.31,9.16 Z M69.87,8 L72.17,13.84 L72.67,15.76 L72.71,15.76 L73.09,13.8 L74.87,8 L76.39,8 L73.03,18.22 L72.25,18.22 L69.63,11.62 L69.25,9.98 L69.19,9.98 L68.79,11.64 L66.27,18.22 L65.49,18.22 L62.01,8 L63.75,8 L65.73,13.82 L66.07,15.76 L66.09,15.76 L66.57,13.78 L68.71,8 L69.87,8 Z M84.39,8 L84.39,13.7 C84.39,14.2200026 84.4199997,14.6766647 84.48,15.07 C84.5400003,15.4633353 84.6433326,15.7899987 84.79,16.05 C84.9366674,16.3100013 85.1366654,16.506666 85.39,16.64 C85.6433346,16.773334 85.9633314,16.84 86.35,16.84 C86.7100018,16.84 87.0299986,16.7833339 87.31,16.67 C87.5900014,16.5566661 87.8399989,16.400001 88.06,16.2 C88.2800011,15.999999 88.4733325,15.7700013 88.64,15.51 C88.8066675,15.2499987 88.9433328,14.9733348 89.05,14.68 L89.05,8 L90.65,8 L90.65,15.16 C90.65,15.6400024 90.6666665,16.1366641 90.7,16.65 C90.7333335,17.1633359 90.7899996,17.6133314 90.87,18 L89.77,18 L89.37,16.42 L89.27,16.42 C88.9633318,16.9400026 88.5500026,17.3733316 88.03,17.72 C87.5099974,18.0666684 86.850004,18.24 86.05,18.24 C85.516664,18.24 85.0466687,18.1766673 84.64,18.05 C84.2333313,17.9233327 83.8933347,17.7000016 83.62,17.38 C83.3466653,17.0599984 83.1400007,16.6300027 83,16.09 C82.8599993,15.5499973 82.79,14.8666708 82.79,14.04 L82.79,8 L84.39,8 Z M98.13,15.28 C98.13,14.879998 98.0100012,14.5666678 97.77,14.34 C97.5299988,14.1133322 97.2333351,13.9233341 96.88,13.77 C96.5266649,13.6166659 96.1400021,13.4700007 95.72,13.33 C95.2999979,13.1899993 94.9133351,13.0100011 94.56,12.79 C94.2066649,12.5699989 93.9100012,12.2866684 93.67,11.94 C93.4299988,11.5933316 93.31,11.1266696 93.31,10.54 C93.31,9.5799952 93.5833306,8.8766689 94.13,8.43 C94.6766694,7.9833311 95.4366618,7.76 96.41,7.76 C97.1300036,7.76 97.7333309,7.8233327 98.22,7.95 C98.7066691,8.0766673 99.1299982,8.2266658 99.49,8.4 L99.11,9.72 C98.8033318,9.5733326 98.4333355,9.4433339 98,9.33 C97.5666645,9.2166661 97.1033358,9.16 96.61,9.16 C96.0233304,9.16 95.5933347,9.259999 95.32,9.46 C95.0466653,9.660001 94.91,10.0066642 94.91,10.5 C94.91,10.8466684 95.0299988,11.1166657 95.27,11.31 C95.5100012,11.5033343 95.8066649,11.6766659 96.16,11.83 C96.5133351,11.9833341 96.8999979,12.1333326 97.32,12.28 C97.7400021,12.4266674 98.1266649,12.6199988 98.48,12.86 C98.8333351,13.1000012 99.1299988,13.4033315 99.37,13.77 C99.6100012,14.1366685 99.73,14.619997 99.73,15.22 C99.73,15.6466688 99.6600007,16.0466648 99.52,16.42 C99.3799993,16.7933352 99.1633348,17.113332 98.87,17.38 C98.5766652,17.646668 98.2133355,17.8566659 97.78,18.01 C97.3466645,18.1633341 96.8366696,18.24 96.25,18.24 C95.4899962,18.24 94.843336,18.1666674 94.31,18.02 C93.776664,17.8733326 93.3300018,17.700001 92.97,17.5 L93.45,16.14 C93.7566682,16.3133342 94.1566642,16.4733326 94.65,16.62 C95.1433358,16.7666674 95.6433308,16.84 96.15,16.84 C96.7233362,16.84 97.1966648,16.7266678 97.57,16.5 C97.9433352,16.2733322 98.13,15.8666696 98.13,15.28 Z M106.93,13 C106.93,11.3066582 107.306663,10.0100045 108.06,9.11 C108.813337,8.2099955 109.89666,7.76 111.31,7.76 C112.05667,7.76 112.706664,7.8833321 113.26,8.13 C113.813336,8.3766679 114.269998,8.7299977 114.63,9.19 C114.990002,9.6500023 115.256666,10.2033301 115.43,10.85 C115.603334,11.4966699 115.69,12.2133294 115.69,13 C115.69,14.6933418 115.313337,15.9899955 114.56,16.89 C113.806663,17.7900045 112.72334,18.24 111.31,18.24 C110.56333,18.24 109.913336,18.1166679 109.36,17.87 C108.806664,17.6233321 108.350002,17.2700023 107.99,16.81 C107.629998,16.3499977 107.363334,15.7966699 107.19,15.15 C107.016666,14.5033301 106.93,13.7866706 106.93,13 Z M108.59,13 C108.59,13.5066692 108.64,13.993331 108.74,14.46 C108.840001,14.926669 108.996666,15.3333316 109.21,15.68 C109.423334,16.0266684 109.703332,16.3066656 110.05,16.52 C110.396668,16.7333344 110.816664,16.84 111.31,16.84 C113.123342,16.8533334 114.03,15.5733462 114.03,13 C114.03,12.4799974 113.980001,11.986669 113.88,11.52 C113.78,11.053331 113.623334,10.6466684 113.41,10.3 C113.196666,9.9533316 112.916668,9.6766677 112.57,9.47 C112.223332,9.2633323 111.803336,9.16 111.31,9.16 C109.496658,9.1466666 108.59,10.4266538 108.59,13 Z M124.63,18 L124.63,12.3 C124.63,11.2599948 124.480001,10.4766693 124.18,9.95 C123.879998,9.4233307 123.330004,9.16 122.53,9.16 C121.82333,9.16 121.240002,9.3499981 120.78,9.73 C120.319998,10.1100019 119.996668,10.5866638 119.81,11.16 L119.81,18 L118.21,18 L118.21,8 L119.33,8 L119.63,9.22 L119.71,9.22 C120.030002,8.7933312 120.459997,8.4433347 121,8.17 C121.540003,7.8966653 122.18333,7.76 122.93,7.76 C123.476669,7.76 123.956665,7.8233327 124.37,7.95 C124.783335,8.0766673 125.126665,8.2999984 125.4,8.62 C125.673335,8.9400016 125.879999,9.3699973 126.02,9.91 C126.160001,10.4500027 126.23,11.1333292 126.23,11.96 L126.23,18 L124.63,18 Z" id="review-us-on"></path>
                <g id="stars" transform="translate(14.000000, 24.000000)">
                    <polygon id="Star-1" points="107 50 102 53 103 48 99 44 104 43 106 39 109 43 114 44 110 48 111 53"></polygon>
                    <polygon id="Star-1-Copy" points="84 50 79 53 80 48 76 44 81 43 83 39 86 43 91 44 87 48 88 53"></polygon>
                    <polygon id="Star-1-Copy-2" points="60 50 55 53 56 48 52 44 57 43 59 39 62 43 67 44 63 48 64 53"></polygon>
                    <polygon id="Star-1-Copy-3" points="37 50 32 53 33 48 29 44 34 43 36 39 39 43 44 44 40 48 41 53"></polygon>
                    <polygon id="Star-1-Copy-4" points="14 50 9 53 10 48 6 44 11 43 13 39 16 43 21 44 17 48 18 53"></polygon>
                    <g id="google" fill-rule="nonzero">
                        <path d="M27.7614044,13.2548048 L14.5849611,13.2548048 L14.5849611,17.218429 L23.9296794,17.218429 C23.468036,22.7764934 18.9065515,25.1467786 14.6007608,25.1467786 C9.09195349,25.1467786 4.28498862,20.7529425 4.28498862,14.5943961 C4.28498862,8.59509401 8.86728537,3.97476445 14.612929,3.97476445 C19.0457508,3.97476445 21.6577956,6.83943025 21.6577956,6.83943025 L24.3954375,3.96551296 C24.3954375,3.96551296 20.8816047,0 14.4730047,0 C6.31318881,0 0,6.98214739 0,14.5237678 C0,21.9136875 5.93865476,29.12 14.6813684,29.12 C22.3710734,29.12 28,23.7798988 28,15.8836364 C28,14.2176728 27.7614044,13.2548048 27.7614044,13.2548048 L27.7614044,13.2548048 Z" id="path2998"></path>
                        <path d="M38.0882636,10.08 C32.8639988,10.08 29.12,14.1821345 29.12,18.96648 C29.12,23.8215642 32.7514646,28 38.149659,28 C43.0364893,28 47.04,24.2485908 47.04,19.0708318 C47.04,13.1363872 42.3829855,10.08 38.0882636,10.08 L38.0882636,10.08 Z M38.1402131,13.5994915 C40.7093755,13.5994915 43.1438341,15.6855845 43.1438341,19.0471145 C43.1438341,22.3373328 40.7196091,24.4828811 38.1284061,24.4828811 C35.2811784,24.4828811 33.0350565,22.1925866 33.0350565,19.021028 C33.0350565,15.9174857 35.2533274,13.5994915 38.1402131,13.5994915 L38.1402131,13.5994915 Z" id="path3000"></path>
                        <path d="M58.2482653,10.08 C53.0239979,10.08 49.28,14.1821345 49.28,18.96648 C49.28,23.8215642 52.9114648,28 58.3096585,28 C63.1964891,28 67.2,24.2485908 67.2,19.0708318 C67.2,13.1363872 62.5429853,10.08 58.2482653,10.08 L58.2482653,10.08 Z M58.3002126,13.5994915 C60.8693751,13.5994915 63.3038339,15.6855845 63.3038339,19.0471145 C63.3038339,22.3373328 60.8796098,24.4828811 58.2884066,24.4828811 C55.4411777,24.4828811 53.1950556,22.1925866 53.1950556,19.021028 C53.1950556,15.9174857 55.4133267,13.5994915 58.3002126,13.5994915 L58.3002126,13.5994915 Z" id="path3005"></path>
                        <path d="M78.407422,10.08 C73.3865114,10.08 69.44,14.4442306 69.44,19.3426196 C69.44,24.9223416 74.0154202,28.6224152 78.320883,28.6224152 C80.9830763,28.6224152 82.3986538,27.5736723 83.443709,26.3699418 L83.443709,28.1979307 C83.443709,31.3962 81.4869487,33.3113863 78.5335106,33.3113863 C75.6803302,33.3113863 74.2491936,31.2059252 73.7518777,30.0111948 L70.1619427,31.5005757 C71.4355159,34.1729633 73.9991561,36.96 78.5631791,36.96 C83.5551775,36.96 87.36,33.8394494 87.36,27.2949778 L87.36,10.6369842 L83.443709,10.6369842 L83.443709,12.2073356 C82.2403558,10.9196402 80.5936863,10.08 78.407422,10.08 Z M78.770861,13.7138913 C81.2325162,13.7138913 83.7601769,15.7998566 83.7601769,19.3622492 C83.7601769,22.9831119 81.237904,24.9787086 78.7164686,24.9787086 C76.0397181,24.9787086 73.5491393,22.8217105 73.5491393,19.3966011 C73.5491393,15.8376055 76.1358388,13.7138913 78.770861,13.7138913 L78.770861,13.7138913 Z" id="path3007"></path>
                        <path d="M103.74427,10.08 C99.0997019,10.08 95.2,13.6907292 95.2,19.0186779 C95.2,24.6563468 99.5468197,28 104.190395,28 C108.066048,28 110.444731,25.9282541 111.864234,24.0720037 L108.697711,22.0132424 C107.876012,23.2592647 106.502333,24.4771241 104.209791,24.4771241 C101.634609,24.4771241 100.450569,23.0992863 99.7170145,21.7644845 L112,16.7845999 L111.362333,15.3252244 C110.175271,12.4672079 107.407083,10.08 103.74427,10.08 L103.74427,10.08 Z M103.904285,13.5223268 C105.577908,13.5223268 106.782368,14.3917782 107.293876,15.4342048 L99.0914706,18.7841352 C98.7378439,16.1905892 101.252416,13.5223268 103.904285,13.5223268 Z" id="path3011"></path>
                        <polygon id="path3015" points="89.6 28 94.08 28 94.08 1.12 89.6 1.12"></polygon>
                    </g>
                </g>
            </g>
            <path d="M185.788965,61.9431629 L185.986088,61.9431629 C186.146428,61.9431629 186.295921,61.9346017 186.295921,61.7524376 C186.295921,61.5916766 186.159632,61.572176 186.036076,61.572176 L185.788965,61.572176 L185.788965,61.9431629 Z M185.628154,61.4271106 L186.050224,61.4271106 C186.325159,61.4271106 186.454846,61.5293698 186.454846,61.7609988 C186.454846,61.9674197 186.322801,62.0558859 186.150672,62.0749108 L186.482198,62.5866825 L186.308654,62.5866825 L185.994577,62.0877527 L185.788965,62.0877527 L185.788965,62.5866825 L185.628154,62.5866825 L185.628154,61.4271106 Z M185.999764,62.854459 C186.466164,62.854459 186.83966,62.4848989 186.83966,61.9950059 C186.83966,61.5146254 186.466164,61.1450654 185.999764,61.1450654 C185.532893,61.1450654 185.159396,61.5146254 185.159396,62.0049941 C185.159396,62.4848989 185.532893,62.854459 185.999764,62.854459 Z M185.999764,61 C186.543504,61 187,61.4299643 187,61.9950059 C187,62.5700357 186.543504,63 185.999764,63 C185.455553,63 185,62.5700357 185,62.0049941 C185,61.4299643 185.455553,61 185.999764,61 L185.999764,61 Z" id="Fill-2" fill="#FFFFFF"></path>
            <g id="lines" transform="translate(20.000000, 25.000000)" stroke-width="2" stroke="#FFFFFF">
                <polyline id="Path-2" points="49 0 0 0 0 56 49 56"></polyline>
                <polyline id="Path-2-Copy" transform="translate(200.500000, 28.000000) scale(-1, 1) translate(-200.500000, -28.000000) " points="225 0 176 0 176 56 225 56"></polyline>
            </g>
        </g>
    </g>
</svg>