<svg height="82" viewBox="0 0 200 82" width="200" xmlns="http://www.w3.org/2000/svg"><g fill-rule="evenodd"><g transform="translate(154.117647)"><path d="m9.78823529 80.9176471c-1.17647058 0-2.32941176-.2117647-3.43529411-.6352942-4.63529412-1.7647058-7.08235295-6.8-5.81176471-11.4588235l-.04705882-.0235294.30588235-.8 23.5529412-61.17647059c.3529412-.89411765.1882353-3.05882353.0235294-4.25882353-.0470588-.28235294-.0470588-.54117647.0235294-.8l.0235294-.04705882c.0235294-.04705882.0235294-.09411765.0470588-.14117647.3764706-.9882353 1.5294118-1.48235294 3.4117647-1.48235294 2.2588236 0 5.3882353.70588235 8.5882353 1.92941176 2.682353 1.03529412 5.1294118 2.32941177 6.8470589 3.62352941 2.0235294 1.52941177 2.8235294 2.89411765 2.3764705 4.07058824-.0235294.04705882-.0470588.09411765-.0705882.14117647l-.0235294.04705882c-.1176471.23529415-.2823529.42352945-.4941176.58823525-1.0352942.9176471-2.5647059 2.4705883-2.8235295 3.1764706l-23.8352941 62.0235294-.0470588-.0235294c-1.6705882 3.2-4.9411765 5.2470589-8.61176471 5.2470589zm-7.36470588-12.5176471-.07058823.1647059c-1.50588236 4.0470588.54117647 8.6117647 4.58823529 10.1647059.91764706.3529411 1.85882353.517647 2.82352941.517647 3.27058822 0 6.16470592-1.9529412 7.36470592-5.0117647l.0941176-.2117647 23.4352941-60.917647c.4941177-1.3176471 2.8235294-3.41176475 3.2941177-3.83529416l.0470588-.04705883c.0470588-.02352941.0705882-.04705882.0705882-.07058823l.0235294-.02352942c.0235295-.16470588-.1882352-.89411764-1.8352941-2.16470588-1.5764706-1.2-3.8588235-2.4-6.4235294-3.38823529-2.9647059-1.15294118-5.9764706-1.83529412-8-1.83529412-1.3411765 0-1.7882353.28235294-1.8588235.42352941v.02352941.09411765.02352941c.0470588.35294118.4941176 3.48235294-.1176471 5.10588236z"/><path d="m32.5647059 29.6470588s-3.2470588 3.7411765-6.2117647 5.082353c-2.9647059 1.3411764-5.1529412.9882353-7.8117647 2.5411764-2.6588236 1.5529412-4 3.7176471-4 3.7176471l-10.82352944 28.1647059c-1.17647059 3.1764706.56470588 6.8941176 3.78823529 8.1411764 3.22352945 1.2470589 6.87058825-.4 8.11764705-3.5529411zm-10.8941177 16.2588236c.5176471-.2352942 1.1294118 0 1.3411765.517647.2352941.5176471 0 1.1294118-.5176471 1.3411765-.517647.2352941-1.1294117 0-1.3411764-.5176471-.2588236-.517647 0-1.1294117.517647-1.3411764zm-4.3529411-4.6352942c.3529411-.1411764.7529411 0 .8941176.3529412s0 .7529412-.3529412.8941177c-.3529411.1411764-.7529411 0-.8941176-.3529412s.0235294-.7529412.3529412-.8941177zm-4.7764706 15.9294118c-.5176471.2352941-1.1294118 0-1.3411765-.5176471-.2352941-.517647 0-1.1294117.5176471-1.3411764.517647-.2352941 1.1294117 0 1.3411764.517647.2588236.5176471.0235294 1.1058824-.517647 1.3411765zm.9647059-3.6941176c-.4235295-.9647059 0-2.0941177.9647058-2.5411765.9647059-.4235294 2.0941177 0 2.5411765.9647059.4235294.9647058 0 2.0941176-.9647059 2.5411764-.9882353.4235294-2.117647 0-2.5411764-.9647058zm2.4470588 9.7647058c.3529412-.1411764.7529412 0 .8941176.3529412.1411765.3529412 0 .7529412-.3529412.8941177-.3529411.1411764-.7529411 0-.8941176-.3529412-.1411765-.3294118 0-.7294118.3529412-.8941177z"/><ellipse cx="34.765932" cy="6.289002" rx="1.717587" ry="6.540947" transform="matrix(.35901259 -.93333272 .93333272 .35901259 16.414793 36.479353)"/></g><path d="m45.5294118 37.4588235c1.0352941.8235294 2.917647.3529412 4.1882353-1.0352941 1.317647-1.4588235 1.5294117-3.317647.4941176-4.1647059-1.0352941-.8235294-2.9176471-.3529411-4.1882353 1.1058824-1.3411765 1.4823529-1.5764706 3.2705882-.4941176 4.0941176zm-3.082353 2.7058824c-.2823529 0-.7529412.4941176-.3529412.6823529.5647059.2117647.8235295.682353.8235295 1.3882353-.4941177 2.8470588-4.0235295 6.1176471-5.4352942 7.2235294-.3529411.3529412.1411765 1.1058824.4941177.8235294.7529412-.6117647 2.3529412-1.8588235 3.6705882-3.5294117-2.1411764 4.8-6.3294117 10.9647059-7.9294117 13.1294117-6.2588236 8.682353-15.7647059 16.6588236-22.3058824 16.6588236-5.22352941 0-9.64705882-3.5294118-10.6117647-8.7529412-.07058823-.5647059-.82352941-.6823529-.68235294.0705882 1.17647059 7.1529412 6.68235294 9.9058824 13.34117644 9.9058824 7.2941177 0 15.8588236-5.2941177 20.5647059-10.682353 7.6235294-8.7529411 12.5882353-18.8 11.2470588-24.4941176-.517647-2.1411765-2-2.4941177-2.8235294-2.4235294zm46.8705883 19.0352941c2-.4941176 3.6705882-1.6 3.6705882-3.3411765 0-.1647059-.3529412-.1647059-.3529412 0 0 1.0352941-1.1764706 1.882353-2.4941176 2.0941177-3.1058824.4941176-9.2941177-3.1764706-12.2117647-6.9411765 3.1058823 1.1764706 9.5058823-.5411765 12.517647-2.6823529 2.7764706-2 3.882353-4.2352942 4.1176471-6.0470589.3529412-2.9647058-2.9176471-4.7294117-7.4352941-2.9647058-2.9176471 1.1764705-6.4 3.7411764-10 8.5411764 3.8117647-6.3294117 11.317647-16.5882353 18.6823529-23.1764706 8.9647063-7.9764705 14.1647063-6.4470588 6.1176473 2-3.3176473 3.4588236-9.5764708 7.9764706-13.9058826 9.9294118-1.317647.5647059-.6823529 1.3176471.282353.8941177 4.5882352-2 10.6823529-6.1882353 14.3764706-9.6470589 10.894118-10.4705882 1.811765-18.37647056-10.282353-7.2941176-8.1882353 7.5764706-13.5529412 15.4823529-18.1882353 25.7411765-1.6 1.9294117-2.7764706 3.5294117-4.2588235 4.8-.1647059.1411764-.3058824.3058823-.4235294.4470588-4 3.4352941-10.3058824 8.0705882-14.2352942 8.1411764-2.7764705.0705883-3.9529411-2-3.4588235-4.7294117.7529412-4.2352941 5.1529412-9.2235294 8.8941177-10.9647059 4.8705882-2.2117647 7.717647 2.0705882 1.317647 5.5529412-2.4235294 1.2470588-5.3647059 1.9294117-6.5411764 1.9294117-1.3882353 0-1.2470589.5647059-.0705883.6117647 1.9294118.0705883 5.082353-.7529411 7.1529412-1.7411764 6.5411765-3.1058824 6.9411765-8.9411765-.1411765-9.1529412-7.717647-.2823529-16.9411764 6.3294118-16.8705882 14.5882353.0705882 3.7411765 3.0588235 5.7647059 7.1529412 5.7647059 6.8235294-.0705883 12.917647-5.2705883 17.8823529-9.8117647.7058824-.5882353 1.4117647-1.2470589 2.0941177-1.9294118-1.7411765 4.4470588-2.6352942 8.5411765-2.2117648 11.5764706.282353 2.2117647 1.5294118 3.2470588 2.4941177 4.0941176.2117647.1411765.6117647 0 .3529412-.4235294-1.4588236-1.7411764-1.0352941-6.8941176.9647059-11.8588235 1.6705882 3.2941176 8.1882352 7.5294118 15.0117647 6zm-8.1882353-14.4705882c7.9764706-7.1529412 11.1058823-.7529412 6.0470588 3.1058823-2.6352941 2-7.8588235 3.5294118-9.5058824 2.5647059l-.3529411-.2117647c-.2117647-.3529412-.4235295-.6823529-.5647059-1.0352941 1.317647-1.6 2.8470588-3.0352941 4.3764706-4.4235294zm44.3058822-8.0941177c3.176471.3529412 1.858824-3.5294117-1.388235-2.5647059-1.458824.4235294-2.847059 3.1764706-3.882353 5.6235294-3.176471 4.8-8.541177 11.2941177-12.305882 14.7058824-3.317648 2.8470588-6.4 3.6-2.635295-1.7411765 1.529412-2.1411764 3.458824-4.4470588 4.588236-6.7294117 2.635294-5.7647059-2.988236-8.3294118-7.505883-4.8705883-2.6352938 2-6.1882349 6.1882353-8.9647055 8.4705883-.7529412.6117647-.5647059 1.5294117.2117647.8941176 2.2117647-1.7882353 6.117647-5.9058823 9.4352938-8.3294118 2.776471-2.1411764 3.882353-.7529411 2.282353 1.0352942-2.211764 2.5647058-6.1176468 7.0117647-7.0823527 9.8588235-1.3882353 4.2352941.2823529 6.1176471 3.0352937 6.1176471 3.811765 0 9.505883-5.9764706 13.341177-10.682353 1.247059-1.6 2.635294-3.4588235 3.811765-5.2705882-3.317647 6.4470588-6.8 12.9882353-11.105883 18.8705882-6.117647 8.3294118-13.7647056 14.5882353-20.9882351 14.5882353-5.2235294 0-9.717647-3.5294118-10.6823529-8.7529412-.0705882-.5647059-.7529412-.6823529-.6823529.0705883 1.1764705 7.1529411 6.6823529 9.9058823 13.3411764 9.9058823 7.2941177 0 14.3058825-4.2352941 19.2235295-9.4352941 9.929412-10.4941176 11.129412-22.2823529 14.164706-28.8705882 1.435294-2.8941177 2.752941-3.0352942 3.788235-2.8941177zm40.376471-10.1411765c1.458823-2.4941176 1.388235-4.4470588-2-4.4470588-2.564706.0705883-7.22353 1.8588236-9.364706 3.5294118-.494118.4941176-.282353.7529412.352941.4941176.423529-.1411764.894118-.4235294 1.388235-.6117647 2.42353-1.317647 1.458824 1.4588236.894118 2.4941177-2.917647 5.0823529-8.047059 12.2117647-10.752941 15.7647059-1.294118 1.7411764-2.752941 3.4823529-4.188236 4.9647058-2.611764 2.4705883-7.764705 6.8705883-11.647058 8.3294118-12.658824 4.7294118 3.458823-16.8 4.8-18.5176471 2.988235-3.7411764 9.647058-10.2588235 11.647058-13.5294117 1.458824-2.4941177 1.388236-4.4470588-2-4.4470588-2.564705.0705882-7.223529 1.8588235-9.364705 3.5294117-.494118.4941177-.282353.7529412.352941.4941177.423529-.1411765.894117-.4235294 1.388235-.6117647 2.423529-1.3176471 1.458824 1.4588235.894118 2.4941176-2.917647 5.082353-8.047059 12.2117647-10.752941 15.7647059-2.211765 2.9647059-4.941177 5.9764706-7.011765 7.6235294-.82353.6823529-.352941 1.3176471.494117.7529412.752942-.4941177 1.858824-1.6 3.105883-2.9176471-2.282353 4.5882353-4.188235 11.0352941 1.858823 11.7882353 5.152942.7058824 11.270589-4.5647059 15.22353-8.4470588.423529-.4235294.917647-.8941177 1.411764-1.4117647.117648-.1176471.235295-.2352941.352942-.3529412-2.282353 4.5882353-4.164706 11.0117647 1.882353 11.7647059 6.611764.8941176 14.8-7.9764706 17.97647-11.2235294.611765-.6117647.42353-1.6705883-.611765-.6117647-1.858823 1.9294117-8.188235 7.6941176-12.8 9.4352941-12.658823 4.7294118 3.458824-16.8 4.8-18.5176471 2.988236-3.7647058 9.670589-10.2823529 11.670589-13.5764706z"/></g></svg>