<svg height="54" viewBox="0 0 300 54" width="300" xmlns="http://www.w3.org/2000/svg" xmlns:xlink="http://www.w3.org/1999/xlink"><linearGradient id="a"><stop offset="0" stop-color="#2fa1d0"/><stop offset=".6685" stop-color="#0062af"/><stop offset="1" stop-color="#234c86"/></linearGradient><linearGradient id="b" x1="0%" x2="101.001664%" xlink:href="#a" y1="49.964348%" y2="49.964348%"/><linearGradient id="c" x1="-193.854749%" x2="118.065475%" xlink:href="#a" y1="49.89375%" y2="49.89375%"/><linearGradient id="d" x1="-350.425389%" x2="1258.38912%" xlink:href="#a" y1="76.111409%" y2="-32.299329%"/><linearGradient id="e" x1="-429.703365%" x2="1063.09038%" xlink:href="#a" y1="83.60946%" y2="-25.53446%"/><linearGradient id="f" x1="-534.870048%" x2="965.135749%" xlink:href="#a" y1="92.684932%" y2="-17.95411%"/><linearGradient id="g" x1="-1750.93684%" x2="2334.60395%" xlink:href="#a" y1="98.853425%" y2="-11.784932%"/><linearGradient id="h" x1="-736.108333%" x2="881.084896%" xlink:href="#a" y1="103.905479%" y2="-6.732877%"/><linearGradient id="i" x1="-770.221759%" x2="667.283333%" xlink:href="#a" y1="113.234483%" y2="1.833103%"/><linearGradient id="j" x1="-900.941232%" x2="570.628436%" xlink:href="#a" y1="119.018085%" y2="11.265393%"/><linearGradient id="k" x1="-1082.92944%" x2="493.218274%" xlink:href="#a" y1="128.410067%" y2="19.999329%"/><linearGradient id="l" x1="-1284.11366%" x2="412.613661%" xlink:href="#a" y1="135.510274%" y2="24.871918%"/><linearGradient id="m" x1="-1199.65829%" x2="271.9109%" xlink:href="#a" y1="140.899221%" y2="33.145863%"/><linearGradient id="n" x1="-1338.18932%" x2="169.097573%" xlink:href="#a" y1="151.034014%" y2="41.148299%"/><linearGradient id="o" x1="80.474419%" x2="17.369767%" y1="9.917687%" y2="83.754422%"><stop offset="0" stop-color="#c62026"/><stop offset=".1467" stop-color="#c42227"/><stop offset=".2752" stop-color="#bd282b"/><stop offset=".3968" stop-color="#b33033"/><stop offset=".5142" stop-color="#a4383e"/><stop offset=".6286" stop-color="#913f4c"/><stop offset=".7408" stop-color="#7b455b"/><stop offset=".8511" stop-color="#604a6c"/><stop offset=".9574" stop-color="#3b4c7e"/><stop offset="1" stop-color="#234c86"/></linearGradient><g fill="none"><g transform="translate(0 5.240623)"><path d="m281.107038 44.8597361h-277.01935177l8.59462237-41.50573714h96.7419074l.628875-3.35399896h-100.09590659l-9.95718441 48.213735h283.936974l5.764686-31.8629901h-3.458811z" fill="url(#b)"/><path d="m275.132727 3.35399896.524062-3.35399896h-93.073471l-.733687 3.35399896z" fill="url(#c)"/></g><g transform="translate(26.203117 23.058743)"><path d="m4.8213735 10.6908717c-.10481247.4192498-.10481247.5240623-.10481247.8384997 0 .4192499.20962494.7336873.62887481.7336873.41924987.1048125 1.67699948.2096249 2.82993662.2096249 1.88662444 0 3.87806134 0 4.50693614-.1048124 1.362562-.209625 1.9914368-.6288748 1.9914368-1.6769995 0-.4192499-.2096249-.73368729-.5240623-.83849976-.4192499-.20962494-.4192499-.20962494-2.9347491-.20962494h-4.19249868c-2.09624935 0-3.35399896-.10481246-4.08768623-.3144374-1.15293714-.41924987-1.67699948-1.15293714-1.67699948-2.41068675 0-1.78181195.73368727-3.98287376 1.57218701-4.92618597 1.25774961-1.36256207 3.14437402-1.78181194 9.22349718-1.78181194 4.6117485 0 5.6598732.10481246 6.8128103.52406233.9433122.41924987 1.4673746 1.15293714 1.4673746 2.30587429 0 .52406233-.1048125 1.15293714-.3144374 1.99143688h-4.5069361c0-.20962494.1048124-.41924987.1048124-.52406234 0-.83849974-.5240623-.94331221-3.2491864-.94331221-1.8866245 0-3.9828738.10481247-4.71656108.10481247-.9433122.10481247-1.46737454.73368727-1.46737454 1.57218701 0 .3144374.10481247.52406234.3144374.73368727.41924987.20962494.41924987.20962494 2.30587428.31443741h4.29731114c.3144374 0 1.0481247 0 2.3058743.10481246 1.6769995.10481247 2.2010618.10481247 2.9347491.41924987.9433122.41924987 1.3625621 1.15293715 1.3625621 2.30587429 0 1.78181193-.6288748 3.87806133-1.4673746 4.82137353-1.2577496 1.4673745-3.144374 1.8866244-9.5379345 1.8866244-4.08768623 0-5.24062337-.1048125-6.49837298-.3144374-1.46737455-.3144374-2.09624935-1.0481247-2.09624935-2.3058743 0-.7336873.10481247-1.1529371.41924987-2.4106868h4.29731116z" fill="url(#d)"/><path d="m29.7667408.20962494-1.3625621 6.70799791c0 .20962494-.1048125.52406234-.209625.94331221-.3144374 1.46737454-.4192498 1.99143688-.4192498 2.51549924 0 1.3625621.8384997 1.6769995 4.0876862 1.6769995 3.7732488 0 4.716561-.1048125 5.3454358-.7336873.5240624-.4192499.7336873-1.0481247 1.0481247-2.41068677.1048125-.3144374.1048125-.3144374.209625-1.04812467.1048124-.41924987.1048124-.52406234.1048124-.62887481l1.4673746-7.02243531h4.716561l-1.6769995 8.07055999c-.8384997 4.08768627-1.4673745 5.34543587-3.5636239 6.49837297-1.8866244.8384997-2.0962493.9433122-7.860935.9433122-5.1358109 0-5.5550608-.1048125-6.7079979-.5240623-1.2577497-.5240624-1.9914369-1.572187-1.9914369-2.9347491 0-1.0481247.1048124-1.6769995.5240623-3.77324884l1.781812-8.28018492z" fill="url(#e)"/><path d="m48.7377974.20962494h13.8352457c1.7818119 0 2.7251241.10481246 3.3539989.52406233.8384998.41924987 1.1529372 1.15293714 1.1529372 2.09624935 0 1.25774961-.4192499 2.93474909-.9433122 3.66843636-.5240624.73368727-1.0481247.94331221-2.2010619 1.15293714 1.572187.20962494 2.3058743.94331221 2.3058743 2.30587429 0 1.67699949-.6288748 3.35399899-1.6769995 4.29731119-.9433122.9433122-2.0962493 1.2577496-4.6117485 1.2577496h-14.568933zm10.2716218 11.94862126c1.1529371 0 1.362562 0 1.6769994-.2096249.4192499-.3144374.7336873-.9433122.7336873-1.572187 0-.52406236-.2096249-.7336873-.5240623-.94331223-.209625-.10481247-.4192499-.10481247-1.4673746-.10481247h-8.1753724l-.5240624 2.8299366zm.7336872-5.86949815c1.0481247 0 1.4673746-.10481247 1.781812-.31443741.4192499-.3144374.6288748-.83849974.6288748-1.36256207 0-.52406234-.2096249-.73368727-.6288748-.94331221-.3144374-.10481247-.5240624-.10481247-1.3625621-.10481247h-7.7561226l-.5240623 2.72512416z" fill="url(#f)"/><path d="m72.1109776.20962494h4.716561l-3.2491865 15.30262026h-4.716561z" fill="url(#g)"/><path d="m97.6852197.20962494-.7336873 3.45881142h-12.3678712l-.5240623 2.62031169h11.7389963l-.6288748 3.03956155h-11.7389963l-.5240624 2.7251242h12.5774961l-.7336872 3.4588114h-17.1892447l3.2491865-15.30262026z" fill="url(#h)"/><path d="m107.118342.20962494h13.206371c2.515499 0 3.878061.20962493 4.716561.73368727.943312.6288748 1.467374 1.57218701 1.467374 2.82993662 0 1.67699948-.8385 5.76468571-1.572187 7.86093507-.628875 1.8866244-2.201062 3.2491865-3.982874 3.5636239-.838499.2096249-1.572187.2096249-3.249186.2096249h-13.835246zm9.957184 11.63418386c1.572187 0 1.991437-.1048124 2.620312-.5240623s1.048124-1.1529372 1.467374-2.9347491c.314438-1.15293715.41925-1.99143689.41925-2.51549922 0-1.36256208-.628875-1.88662442-2.725124-1.88662442h-7.860935l-1.676999 7.86093504z" fill="url(#i)"/><path d="m149.462579.83849974c.943312.52406234 1.467374 1.57218701 1.467374 3.14437402 0 .83849974-.209625 1.88662442-.733687 4.61174857-.524062 2.62031167-1.048125 3.87806127-1.886625 4.92618597-1.152937 1.3625621-2.620311 1.9914369-5.13581 2.2010618-.943313 0-2.93475.1048125-5.030999.1048125-5.345436 0-6.603185-.1048125-7.860935-.7336873-.943312-.5240623-1.467375-1.572187-1.467375-3.0395615 0-.9433123.209625-2.09624939.8385-5.13581095.8385-4.08768623 1.991437-5.55506077 4.716561-6.28874804 1.362562-.41924987 2.829937-.41924987 6.707998-.41924987 6.079123-.20962494 7.022435-.10481247 8.384998.6288748zm-14.568933 4.1924987c-.524063.83849974-1.25775 3.87806129-1.25775 5.24062336 0 1.4673746.733687 1.6769995 4.611749 1.6769995 2.096249 0 3.249186 0 4.087686-.1048125 1.781812-.2096249 2.410687-.8384997 3.039561-3.03956154.41925-1.67699947.524063-2.72512415.524063-3.35399895 0-1.46737455-.524063-1.57218701-5.240624-1.57218701-4.297311-.10481247-5.135811.10481246-5.764685 1.15293714z" fill="url(#j)"/><path d="m172.730946 9.74755947c-.524062 2.41068673-.733687 3.14437403-1.257749 3.87806133-1.048125 1.362562-2.515499 1.8866244-5.659874 1.9914368-.733687 0-2.934749 0-4.821373 0-4.297311 0-5.659873-.2096249-6.707998-1.0481246-.733687-.5240624-1.048125-1.3625621-1.048125-2.8299366 0-1.1529372.41925-3.353999.943313-5.76468576.838499-3.24918649 1.781812-4.61174856 3.982873-5.34543583 1.25775-.41924987 2.829937-.62887481 6.498373-.62887481 4.611749 0 6.288748.10481247 7.232061.41924987 1.362562.41924987 1.991436 1.25774961 1.991436 2.72512415 0 .62887481-.104812 1.25774961-.314437 2.41068675h-4.506936c0-.3144374.104812-.41924987.104812-.6288748 0-1.04812467-.524062-1.15293714-4.297311-1.15293714-2.515499 0-3.668436 0-4.192498.20962493-1.25775.3144374-1.572187.83849974-2.09625 2.82993662-.41925 1.78181195-.524062 2.72512416-.524062 3.45881142 0 1.4673746.628875 1.6769995 4.297311 1.6769995 3.563624 0 4.087686 0 4.716561-.3144374.733687-.3144374 1.048125-.7336873 1.25775-1.88662443z" fill="url(#k)"/><path d="m182.792943 3.98287376h-6.81281l.8385-3.77324882h18.342181l-.838499 3.77324882h-6.812811l-2.410687 11.52937144h-4.716561z" fill="url(#l)"/><path d="m215.704058.83849974c.943312.52406234 1.467375 1.57218701 1.467375 3.14437402 0 .83849974-.209625 1.88662442-.733688 4.61174857-.524062 2.62031167-1.048124 3.87806127-1.886624 4.92618597-1.152937 1.3625621-2.620312 1.9914369-5.135811 2.2010618-.943312 0-2.934749.1048125-5.030998.1048125-5.345436 0-6.603186-.1048125-7.860936-.7336873-.943312-.5240623-1.467374-1.572187-1.467374-3.0395615 0-.9433123.209625-2.09624939.8385-5.13581095.838499-4.08768623 1.991437-5.55506077 4.716561-6.28874804 1.362562-.41924987 2.829936-.41924987 6.707998-.41924987 6.183935-.20962494 7.022435-.10481247 8.384997.6288748zm-14.464121 4.1924987c-.524062.83849974-1.257749 3.87806129-1.257749 5.24062336 0 1.4673746.733687 1.6769995 4.611748 1.6769995 2.09625 0 3.249187 0 4.087687-.1048125 1.781812-.2096249 2.410686-.8384997 3.039561-3.03956154.41925-1.67699947.524063-2.72512415.524063-3.35399895 0-1.46737455-.524063-1.57218701-5.240624-1.57218701-4.402123-.10481247-5.135811.10481246-5.764686 1.15293714z" fill="url(#m)"/><path d="m221.887994.20962494h13.20637c4.087687 0 5.240624.6288748 5.240624 3.03956155 0 1.78181195-.524062 3.8780613-1.152937 4.92618597-.628875.94331221-1.25775 1.25774961-2.620312 1.57218701.733687.10481247.943312.10481247 1.25775.20962494.524062.20962489.733687.62887479.733687 1.15293709 0 .3144375 0 .5240624-.314438 1.9914369l-.524062 2.4106868h-4.716561l.41925-1.8866244c.104812-.3144374.104812-.6288748.104812-.8384998 0-.5240623-.209624-.8384997-.628874-.9433122-.209625-.1048124-.733688-.1048124-1.572187-.1048124h-7.127248l-.8385 3.8780612h-4.611748zm10.271621 7.75612259c1.362562 0 1.886625-.10481247 2.305875-.41924987.41925-.20962494.524062-.52406234.733687-1.36256208.104812-.41924987.209625-.94331221.209625-1.15293714 0-.52406234-.209625-.83849974-.733687-.94331221-.41925-.10481247-.524063-.10481247-1.467375-.10481247h-7.441685l-.8385 3.98287377z" fill="url(#n)"/></g><g fill="#1b75bc" transform="translate(128.419404 2.096249)"><path d="m3.85392955 2.30587428h-3.56362389l.41924987-1.99143688h9.64274697l-.41924983 1.99143688h-3.5636239l-1.25774961 6.07912312h-2.51549921z"/><path d="m12.8678018.3144374h2.4106867l-.6288748 2.93474909h5.5550608l.6288748-2.93474909h2.4106867l-1.6769994 8.07056h-2.4106868l.6288748-3.03956156h-5.5550608l-.6288748 3.03956156h-2.4106867z"/><path d="m35.5072947.3144374-.4192498 1.78181195h-6.498373l-.3144374 1.36256208h6.1839355l-.3144374 1.57218701h-6.1839355l-.3144374 1.46737454h6.6031854l-.4192499 1.78181195h-9.0138722l1.6769995-8.07055999h9.0138722z"/></g><path d="m299.134782 5.24062337h-6.498373l.943312-5.03099843h-4.087686l-.943312 5.03099843h-6.707998l-.733687 3.98287376h6.81281l-1.152937 6.39356047h3.982874l1.152937-6.39356047h6.603185z" fill="url(#o)"/></g></svg>