<?xml version="1.0" encoding="UTF-8"?>
<svg width="300px" height="54px" viewBox="0 0 300 54" version="1.1" xmlns="http://www.w3.org/2000/svg" xmlns:xlink="http://www.w3.org/1999/xlink">
    <!-- Generator: Sketch 46.2 (44496) - http://www.bohemiancoding.com/sketch -->
    <title>Logo</title>
    <desc>Created with Sketch.</desc>
    <defs>
        <linearGradient x1="0%" y1="49.9643478%" x2="101.001664%" y2="49.9643478%" id="linearGradient-1">
            <stop stop-color="#2FA1D0" offset="0%"></stop>
            <stop stop-color="#0062AF" offset="66.85%"></stop>
            <stop stop-color="#234C86" offset="100%"></stop>
        </linearGradient>
        <linearGradient x1="-193.854749%" y1="49.89375%" x2="118.065475%" y2="49.89375%" id="linearGradient-2">
            <stop stop-color="#2FA1D0" offset="0%"></stop>
            <stop stop-color="#0062AF" offset="66.85%"></stop>
            <stop stop-color="#234C86" offset="100%"></stop>
        </linearGradient>
        <linearGradient x1="-350.425389%" y1="76.1114094%" x2="1258.38912%" y2="-32.2993289%" id="linearGradient-3">
            <stop stop-color="#2FA1D0" offset="0%"></stop>
            <stop stop-color="#0062AF" offset="66.85%"></stop>
            <stop stop-color="#234C86" offset="100%"></stop>
        </linearGradient>
        <linearGradient x1="-429.703365%" y1="83.6094595%" x2="1063.09038%" y2="-25.5344595%" id="linearGradient-4">
            <stop stop-color="#2FA1D0" offset="0%"></stop>
            <stop stop-color="#0062AF" offset="66.85%"></stop>
            <stop stop-color="#234C86" offset="100%"></stop>
        </linearGradient>
        <linearGradient x1="-534.870048%" y1="92.6849315%" x2="965.135749%" y2="-17.9541096%" id="linearGradient-5">
            <stop stop-color="#2FA1D0" offset="0%"></stop>
            <stop stop-color="#0062AF" offset="66.85%"></stop>
            <stop stop-color="#234C86" offset="100%"></stop>
        </linearGradient>
        <linearGradient x1="-1750.93684%" y1="98.8534247%" x2="2334.60395%" y2="-11.7849315%" id="linearGradient-6">
            <stop stop-color="#2FA1D0" offset="0%"></stop>
            <stop stop-color="#0062AF" offset="66.85%"></stop>
            <stop stop-color="#234C86" offset="100%"></stop>
        </linearGradient>
        <linearGradient x1="-736.108333%" y1="103.905479%" x2="881.084896%" y2="-6.73287671%" id="linearGradient-7">
            <stop stop-color="#2FA1D0" offset="0%"></stop>
            <stop stop-color="#0062AF" offset="66.85%"></stop>
            <stop stop-color="#234C86" offset="100%"></stop>
        </linearGradient>
        <linearGradient x1="-770.221759%" y1="113.234483%" x2="667.283333%" y2="1.83310345%" id="linearGradient-8">
            <stop stop-color="#2FA1D0" offset="0%"></stop>
            <stop stop-color="#0062AF" offset="66.85%"></stop>
            <stop stop-color="#234C86" offset="100%"></stop>
        </linearGradient>
        <linearGradient x1="-900.941232%" y1="119.018085%" x2="570.628436%" y2="11.2653931%" id="linearGradient-9">
            <stop stop-color="#2FA1D0" offset="0%"></stop>
            <stop stop-color="#0062AF" offset="66.85%"></stop>
            <stop stop-color="#234C86" offset="100%"></stop>
        </linearGradient>
        <linearGradient x1="-1082.92944%" y1="128.410067%" x2="493.218274%" y2="19.9993289%" id="linearGradient-10">
            <stop stop-color="#2FA1D0" offset="0%"></stop>
            <stop stop-color="#0062AF" offset="66.85%"></stop>
            <stop stop-color="#234C86" offset="100%"></stop>
        </linearGradient>
        <linearGradient x1="-1284.11366%" y1="135.510274%" x2="412.613661%" y2="24.8719178%" id="linearGradient-11">
            <stop stop-color="#2FA1D0" offset="0%"></stop>
            <stop stop-color="#0062AF" offset="66.85%"></stop>
            <stop stop-color="#234C86" offset="100%"></stop>
        </linearGradient>
        <linearGradient x1="-1199.65829%" y1="140.899221%" x2="271.9109%" y2="33.1458628%" id="linearGradient-12">
            <stop stop-color="#2FA1D0" offset="0%"></stop>
            <stop stop-color="#0062AF" offset="66.85%"></stop>
            <stop stop-color="#234C86" offset="100%"></stop>
        </linearGradient>
        <linearGradient x1="-1338.18932%" y1="151.034014%" x2="169.097573%" y2="41.1482993%" id="linearGradient-13">
            <stop stop-color="#2FA1D0" offset="0%"></stop>
            <stop stop-color="#0062AF" offset="66.85%"></stop>
            <stop stop-color="#234C86" offset="100%"></stop>
        </linearGradient>
        <linearGradient x1="80.4744186%" y1="9.91768707%" x2="17.3697674%" y2="83.7544218%" id="linearGradient-14">
            <stop stop-color="#C62026" offset="0%"></stop>
            <stop stop-color="#C42227" offset="14.67%"></stop>
            <stop stop-color="#BD282B" offset="27.52%"></stop>
            <stop stop-color="#B33033" offset="39.68%"></stop>
            <stop stop-color="#A4383E" offset="51.42%"></stop>
            <stop stop-color="#913F4C" offset="62.86%"></stop>
            <stop stop-color="#7B455B" offset="74.08%"></stop>
            <stop stop-color="#604A6C" offset="85.11%"></stop>
            <stop stop-color="#3B4C7E" offset="95.74%"></stop>
            <stop stop-color="#234C86" offset="100%"></stop>
        </linearGradient>
    </defs>
    <g id="Welcome" stroke="none" stroke-width="1" fill="none" fill-rule="evenodd">
        <g id="Desktop-HD-Copy" transform="translate(-38.000000, -24.000000)" fill-rule="nonzero">
            <g id="Logo" transform="translate(38.000000, 24.000000)">
                <g id="Group" transform="translate(0.000000, 5.240623)">
                    <polygon id="Shape" fill="url(#linearGradient-1)" points="281.107038 44.8597361 4.08768623 44.8597361 12.6823086 3.35399896 109.424216 3.35399896 110.053091 0 9.95718441 0 0 48.213735 283.936974 48.213735 289.70166 16.3507449 286.242849 16.3507449"></polygon>
                    <polygon id="Shape" fill="url(#linearGradient-2)" points="275.132727 3.35399896 275.656789 0 182.583318 0 181.849631 3.35399896"></polygon>
                </g>
                <g id="Group" transform="translate(26.203117, 23.058743)">
                    <path d="M4.8213735,10.6908717 C4.71656103,11.1101215 4.71656103,11.214934 4.71656103,11.5293714 C4.71656103,11.9486213 4.92618597,12.2630587 5.34543584,12.2630587 C5.76468571,12.3678712 7.02243532,12.4726836 8.17537246,12.4726836 C10.0619969,12.4726836 12.0534338,12.4726836 12.6823086,12.3678712 C14.0448706,12.1582462 14.6737454,11.7389964 14.6737454,10.6908717 C14.6737454,10.2716218 14.4641205,9.95718441 14.1496831,9.85237194 C13.7304332,9.642747 13.7304332,9.642747 11.214934,9.642747 L7.02243532,9.642747 C4.92618597,9.642747 3.66843636,9.53793454 2.93474909,9.3283096 C1.78181195,8.90905973 1.25774961,8.17537246 1.25774961,6.91762285 C1.25774961,5.1358109 1.99143688,2.93474909 2.82993662,1.99143688 C4.08768623,0.628874805 5.97431064,0.209624935 12.0534338,0.209624935 C16.6651823,0.209624935 17.713307,0.314437402 18.8662441,0.733687272 C19.8095563,1.15293714 20.3336187,1.88662441 20.3336187,3.03956156 C20.3336187,3.56362389 20.2288062,4.1924987 20.0191813,5.03099844 L15.5122452,5.03099844 C15.5122452,4.8213735 15.6170576,4.61174857 15.6170576,4.5069361 C15.6170576,3.66843636 15.0929953,3.56362389 12.3678712,3.56362389 C10.4812467,3.56362389 8.3849974,3.66843636 7.65131012,3.66843636 C6.70799792,3.77324883 6.18393558,4.40212363 6.18393558,5.24062337 C6.18393558,5.55506077 6.28874805,5.76468571 6.49837298,5.97431064 C6.91762285,6.18393558 6.91762285,6.18393558 8.80424726,6.28874805 L13.1015584,6.28874805 C13.4159958,6.28874805 14.1496831,6.28874805 15.4074327,6.39356051 C17.0844322,6.49837298 17.6084945,6.49837298 18.3421818,6.81281038 C19.285494,7.23206025 19.7047439,7.96574753 19.7047439,9.11868467 C19.7047439,10.9004966 19.0758691,12.996746 18.2373693,13.9400582 C16.9796197,15.4074327 15.0929953,15.8266826 8.6994348,15.8266826 C4.61174857,15.8266826 3.45881143,15.7218701 2.20106182,15.5122452 C0.733687272,15.1978078 0.104812467,14.4641205 0.104812467,13.2063709 C0.104812467,12.4726836 0.209624935,12.0534338 0.524062337,10.7956841 L4.8213735,10.7956841 L4.8213735,10.6908717 Z" id="Shape" fill="url(#linearGradient-3)"></path>
                    <path d="M29.7667408,0.209624935 L28.4041787,6.91762285 C28.4041787,7.12724779 28.2993662,7.44168519 28.1945537,7.86093506 C27.8801163,9.3283096 27.7753039,9.85237194 27.7753039,10.3764343 C27.7753039,11.7389964 28.6138036,12.0534338 31.8629901,12.0534338 C35.6362389,12.0534338 36.5795511,11.9486213 37.2084259,11.3197465 C37.7324883,10.9004966 37.9421132,10.2716218 38.2565506,8.90905973 C38.3613631,8.59462233 38.3613631,8.59462233 38.4661756,7.86093506 C38.570988,7.44168519 38.570988,7.33687272 38.570988,7.23206025 L40.0383626,0.209624935 L44.7549236,0.209624935 L43.0779241,8.28018493 C42.2394244,12.3678712 41.6105496,13.6256208 39.5143002,14.7785579 C37.6276758,15.6170576 37.4180509,15.7218701 31.6533652,15.7218701 C26.5175543,15.7218701 26.0983044,15.6170576 24.9453673,15.1978078 C23.6876176,14.6737454 22.9539304,13.6256208 22.9539304,12.2630587 C22.9539304,11.214934 23.0587428,10.5860592 23.4779927,8.48980986 L25.2598047,0.209624935 L29.7667408,0.209624935 L29.7667408,0.209624935 Z" id="Shape" fill="url(#linearGradient-4)"></path>
                    <path d="M48.7377974,0.209624935 L62.5730431,0.209624935 C64.354855,0.209624935 65.2981672,0.314437402 65.927042,0.733687272 C66.7655418,1.15293714 67.0799792,1.88662441 67.0799792,2.82993662 C67.0799792,4.08768623 66.6607293,5.76468571 66.136667,6.49837298 C65.6126046,7.23206025 65.0885423,7.44168519 63.9356051,7.65131012 C65.5077921,7.86093506 66.2414794,8.59462233 66.2414794,9.95718441 C66.2414794,11.6341839 65.6126046,13.3111834 64.5644799,14.2544956 C63.6211677,15.1978078 62.4682306,15.5122452 59.9527314,15.5122452 L45.3837984,15.5122452 L48.7377974,0.209624935 Z M59.0094192,12.1582462 C60.1623563,12.1582462 60.3719812,12.1582462 60.6864186,11.9486213 C61.1056685,11.6341839 61.4201059,11.0053091 61.4201059,10.3764343 C61.4201059,9.85237194 61.210481,9.642747 60.8960436,9.43312207 C60.6864186,9.3283096 60.4767937,9.3283096 59.428669,9.3283096 L51.2532966,9.3283096 L50.7292342,12.1582462 L59.0094192,12.1582462 Z M59.7431064,6.28874805 C60.7912311,6.28874805 61.210481,6.18393558 61.5249184,5.97431064 C61.9441683,5.65987324 62.1537932,5.1358109 62.1537932,4.61174857 C62.1537932,4.08768623 61.9441683,3.8780613 61.5249184,3.66843636 C61.210481,3.56362389 61.000856,3.56362389 60.1623563,3.56362389 L52.4062337,3.56362389 L51.8821714,6.28874805 L59.7431064,6.28874805 Z" id="Shape" fill="url(#linearGradient-5)"></path>
                    <polygon id="Shape" fill="url(#linearGradient-6)" points="72.1109776 0.209624935 76.8275386 0.209624935 73.5783521 15.5122452 68.8617911 15.5122452"></polygon>
                    <polygon id="Shape" fill="url(#linearGradient-7)" points="97.6852197 0.209624935 96.9515324 3.66843636 84.5836612 3.66843636 84.0595989 6.28874805 95.7985952 6.28874805 95.1697204 9.3283096 83.4307241 9.3283096 82.9066617 12.0534338 95.4841578 12.0534338 94.7504706 15.5122452 77.5612259 15.5122452 80.8104124 0.209624935 97.6852197 0.209624935"></polygon>
                    <path d="M107.118342,0.209624935 L120.324713,0.209624935 C122.840212,0.209624935 124.202774,0.41924987 125.041274,0.943312207 C125.984586,1.57218701 126.508648,2.51549922 126.508648,3.77324883 C126.508648,5.45024831 125.670148,9.53793454 124.936461,11.6341839 C124.307586,13.5208083 122.735399,14.8833704 120.953587,15.1978078 C120.115088,15.4074327 119.3814,15.4074327 117.704401,15.4074327 L103.869155,15.4074327 L107.118342,0.209624935 Z M117.075526,11.8438088 C118.647713,11.8438088 119.066963,11.7389964 119.695838,11.3197465 C120.324713,10.9004966 120.743962,10.1668093 121.163212,8.3849974 C121.47765,7.23206025 121.582462,6.39356051 121.582462,5.86949818 C121.582462,4.5069361 120.953587,3.98287376 118.857338,3.98287376 L110.996403,3.98287376 L109.319404,11.8438088 L117.075526,11.8438088 L117.075526,11.8438088 Z" id="Shape" fill="url(#linearGradient-8)"></path>
                    <path d="M149.462579,0.83849974 C150.405891,1.36256208 150.929953,2.41068675 150.929953,3.98287376 C150.929953,4.8213735 150.720328,5.86949818 150.196266,8.59462233 C149.672204,11.214934 149.148141,12.4726836 148.309641,13.5208083 C147.156704,14.8833704 145.68933,15.5122452 143.173831,15.7218701 C142.230518,15.7218701 140.239081,15.8266826 138.142832,15.8266826 C132.797396,15.8266826 131.539647,15.7218701 130.281897,15.0929953 C129.338585,14.568933 128.814522,13.5208083 128.814522,12.0534338 C128.814522,11.1101215 129.024147,9.95718441 129.653022,6.91762285 C130.491522,2.82993662 131.644459,1.36256208 134.369583,0.628874805 C135.732145,0.209624935 137.19952,0.209624935 141.077581,0.209624935 C147.156704,6.9388939e-16 148.100016,0.104812467 149.462579,0.83849974 Z M134.893646,5.03099844 C134.369583,5.86949818 133.635896,8.90905973 133.635896,10.2716218 C133.635896,11.7389964 134.369583,11.9486213 138.247645,11.9486213 C140.343894,11.9486213 141.496831,11.9486213 142.335331,11.8438088 C144.117143,11.6341839 144.746018,11.0053091 145.374892,8.80424726 C145.794142,7.12724779 145.898955,6.07912311 145.898955,5.45024831 C145.898955,3.98287376 145.374892,3.8780613 140.658331,3.8780613 C136.36102,3.77324883 135.52252,3.98287376 134.893646,5.03099844 Z" id="Shape" fill="url(#linearGradient-9)"></path>
                    <path d="M172.730946,9.74755947 C172.206884,12.1582462 171.997259,12.8919335 171.473197,13.6256208 C170.425072,14.9881828 168.957698,15.5122452 165.813323,15.6170576 C165.079636,15.6170576 162.878574,15.6170576 160.99195,15.6170576 C156.694639,15.6170576 155.332077,15.4074327 154.283952,14.568933 C153.550265,14.0448706 153.235827,13.2063709 153.235827,11.7389964 C153.235827,10.5860592 153.655077,8.3849974 154.17914,5.97431064 C155.017639,2.72512415 155.960952,1.36256208 158.162013,0.628874805 C159.419763,0.209624935 160.99195,-7.10542736e-15 164.660386,-7.10542736e-15 C169.272135,-7.10542736e-15 170.949134,0.104812467 171.892447,0.41924987 C173.255009,0.83849974 173.883883,1.67699948 173.883883,3.14437402 C173.883883,3.77324883 173.779071,4.40212363 173.569446,5.55506077 L169.06251,5.55506077 C169.06251,5.24062337 169.167322,5.1358109 169.167322,4.92618597 C169.167322,3.8780613 168.64326,3.77324883 164.870011,3.77324883 C162.354512,3.77324883 161.201575,3.77324883 160.677513,3.98287376 C159.419763,4.29731116 159.105326,4.8213735 158.581263,6.81281038 C158.162013,8.59462233 158.057201,9.53793454 158.057201,10.2716218 C158.057201,11.7389964 158.686076,11.9486213 162.354512,11.9486213 C165.918136,11.9486213 166.442198,11.9486213 167.071073,11.6341839 C167.80476,11.3197465 168.119198,10.9004966 168.328823,9.74755947 L172.730946,9.74755947 Z" id="Shape" fill="url(#linearGradient-10)"></path>
                    <polygon id="Shape" fill="url(#linearGradient-11)" points="182.792943 3.98287376 175.980133 3.98287376 176.818633 0.209624935 195.160814 0.209624935 194.322315 3.98287376 187.509504 3.98287376 185.098817 15.5122452 180.382256 15.5122452"></polygon>
                    <path d="M215.704058,0.83849974 C216.64737,1.36256208 217.171433,2.41068675 217.171433,3.98287376 C217.171433,4.8213735 216.961808,5.86949818 216.437745,8.59462233 C215.913683,11.214934 215.389621,12.4726836 214.551121,13.5208083 C213.398184,14.8833704 211.930809,15.5122452 209.41531,15.7218701 C208.471998,15.7218701 206.480561,15.8266826 204.384312,15.8266826 C199.038876,15.8266826 197.781126,15.7218701 196.523376,15.0929953 C195.580064,14.568933 195.056002,13.5208083 195.056002,12.0534338 C195.056002,11.1101215 195.265627,9.95718441 195.894502,6.91762285 C196.733001,2.82993662 197.885939,1.36256208 200.611063,0.628874805 C201.973625,0.209624935 203.440999,0.209624935 207.319061,0.209624935 C213.502996,6.9388939e-16 214.341496,0.104812467 215.704058,0.83849974 Z M201.239937,5.03099844 C200.715875,5.86949818 199.982188,8.90905973 199.982188,10.2716218 C199.982188,11.7389964 200.715875,11.9486213 204.593936,11.9486213 C206.690186,11.9486213 207.843123,11.9486213 208.681623,11.8438088 C210.463435,11.6341839 211.092309,11.0053091 211.721184,8.80424726 C212.140434,7.12724779 212.245247,6.07912311 212.245247,5.45024831 C212.245247,3.98287376 211.721184,3.8780613 207.004623,3.8780613 C202.6025,3.77324883 201.868812,3.98287376 201.239937,5.03099844 Z" id="Shape" fill="url(#linearGradient-12)"></path>
                    <path d="M221.887994,0.209624935 L235.094364,0.209624935 C239.182051,0.209624935 240.334988,0.83849974 240.334988,3.24918649 C240.334988,5.03099844 239.810926,7.12724779 239.182051,8.17537246 C238.553176,9.11868467 237.924301,9.43312207 236.561739,9.74755947 C237.295426,9.85237194 237.505051,9.85237194 237.819489,9.95718441 C238.343551,10.1668093 238.553176,10.5860592 238.553176,11.1101215 C238.553176,11.424559 238.553176,11.6341839 238.238738,13.1015584 L237.714676,15.5122452 L232.998115,15.5122452 L233.417365,13.6256208 C233.522177,13.3111834 233.522177,12.996746 233.522177,12.787121 C233.522177,12.2630587 233.312553,11.9486213 232.893303,11.8438088 C232.683678,11.7389964 232.159615,11.7389964 231.321116,11.7389964 L224.193868,11.7389964 L223.355368,15.6170576 L218.74362,15.6170576 L221.887994,0.209624935 Z M232.159615,7.96574753 C233.522177,7.96574753 234.04624,7.86093506 234.46549,7.54649766 C234.88474,7.33687272 234.989552,7.02243532 235.199177,6.18393558 C235.303989,5.76468571 235.408802,5.24062337 235.408802,5.03099844 C235.408802,4.5069361 235.199177,4.1924987 234.675115,4.08768623 C234.255865,3.98287376 234.151052,3.98287376 233.20774,3.98287376 L225.766055,3.98287376 L224.927555,7.96574753 L232.159615,7.96574753 Z" id="Shape" fill="url(#linearGradient-13)"></path>
                </g>
                <g id="Group" transform="translate(128.419404, 2.096249)" fill="#1B75BC">
                    <polygon id="Shape" points="3.85392955 2.30587428 0.290305662 2.30587428 0.709555532 0.314437402 10.3523025 0.314437402 9.93305267 2.30587428 6.36942877 2.30587428 5.11167916 8.3849974 2.59617995 8.3849974"></polygon>
                    <polygon id="Shape" points="12.8678018 0.314437402 15.2784885 0.314437402 14.6496137 3.24918649 20.2046745 3.24918649 20.8335493 0.314437402 23.244236 0.314437402 21.5672366 8.3849974 19.1565498 8.3849974 19.7854246 5.34543584 14.2303638 5.34543584 13.601489 8.3849974 11.1908023 8.3849974"></polygon>
                    <polygon id="Shape" points="35.5072947 0.314437402 35.0880449 2.09624935 28.5896719 2.09624935 28.2752345 3.45881143 34.45917 3.45881143 34.1447326 5.03099844 27.9607971 5.03099844 27.6463597 6.49837298 34.2495451 6.49837298 33.8302952 8.28018493 24.816423 8.28018493 26.4934225 0.209624935 35.5072947 0.209624935"></polygon>
                </g>
                <polygon id="Shape" fill="url(#linearGradient-14)" points="299.134782 5.24062337 292.636409 5.24062337 293.579721 0.209624935 289.492035 0.209624935 288.548723 5.24062337 281.840725 5.24062337 281.107038 9.22349713 287.919848 9.22349713 286.766911 15.6170576 290.749785 15.6170576 291.902722 9.22349713 298.505907 9.22349713"></polygon>
            </g>
        </g>
    </g>
</svg>